<?xml version="1.0" encoding="utf-8"?>
<!-- Generator: Adobe Illustrator 16.0.0, SVG Export Plug-In . SVG Version: 6.00 Build 0)  -->
<!DOCTYPE svg PUBLIC "-//W3C//DTD SVG 1.1//EN" "http://www.w3.org/Graphics/SVG/1.1/DTD/svg11.dtd">
<svg version="1.1" id="Layer_1" xmlns="http://www.w3.org/2000/svg" xmlns:xlink="http://www.w3.org/1999/xlink" x="0px" y="0px"
	 width="367px" height="95.5px" viewBox="0 0 367 95.5" enable-background="new 0 0 367 95.5" xml:space="preserve">
<g>
	<path fill="#FFFFFF" d="M129.5,32.481v12.753h-2.806v-7.588l-3.465,7.588h-1.615l-3.443-7.609v7.609h-2.806V32.481h3.04l4.017,8.82
		l4.061-8.82H129.5z"/>
	<path fill="#FFFFFF" d="M141.866,43.023v2.211c-0.19,0.085-0.446,0.17-0.723,0.17c-1.147,0-2.083-0.574-2.614-1.445
		c-0.68,0.893-1.679,1.445-2.912,1.445c-2.359,0-4.208-1.955-4.208-4.421s1.849-4.421,4.208-4.421c0.979,0,1.786,0.34,2.424,0.914
		v-0.744h2.699v5.463c0,0.701,0.383,0.828,0.744,0.828H141.866z M138.168,40.983c0-1.127-0.914-2.02-2.02-2.02
		c-1.126,0-2.019,0.893-2.019,2.02c0,1.126,0.893,2.02,2.019,2.02C137.254,43.003,138.168,42.109,138.168,40.983z"/>
	<path fill="#FFFFFF" d="M151.62,39.856v5.378h-2.699v-4.932c0-0.765-0.553-1.339-1.34-1.339c-0.786,0-1.424,0.574-1.424,1.339
		v4.932h-2.721v-8.502h2.721v1.041c0.596-0.744,1.445-1.211,2.423-1.211C150.26,36.562,151.62,37.986,151.62,39.856z"/>
	<path fill="#FFFFFF" d="M153.764,41.982v-5.25h2.721v4.889c0,0.808,0.553,1.382,1.275,1.382c0.744,0,1.297-0.574,1.297-1.382
		v-4.889h2.699v5.25c0,2.083-1.424,3.422-3.996,3.422C155.188,45.404,153.764,44.065,153.764,41.982z"/>
	<path fill="#FFFFFF" d="M163.241,43.364l1.998-0.999c0.382,0.723,0.978,0.893,1.424,0.893s0.744-0.191,0.744-0.531
		c0-0.298-0.256-0.511-1.021-0.808c-0.978-0.361-2.679-0.936-2.679-2.636c0-1.445,1.233-2.721,3.167-2.721
		c1.19,0,2.232,0.488,2.87,1.126l-1.36,1.53c-0.255-0.318-0.766-0.616-1.318-0.616c-0.467,0-0.68,0.213-0.68,0.489
		c0,0.318,0.298,0.446,0.914,0.701c1.211,0.468,2.614,1.147,2.614,2.849c0,1.594-1.169,2.763-3.082,2.763
		C165.324,45.404,163.751,44.682,163.241,43.364z"/>
	<path fill="#FFFFFF" d="M170.976,40.983c0-2.551,1.892-4.421,4.739-4.421c2.551,0,4.294,1.487,4.655,3.613h-2.806
		c-0.276-0.723-0.978-1.19-1.85-1.212c-1.169,0.021-2.019,0.872-2.019,2.02s0.85,1.998,2.019,2.02
		c0.872-0.021,1.573-0.489,1.85-1.212h2.806c-0.361,2.126-2.104,3.613-4.655,3.613C172.867,45.404,170.976,43.534,170.976,40.983z"
		/>
	<path fill="#FFFFFF" d="M187.913,36.647v2.401c-0.191-0.042-0.468-0.085-0.786-0.085c-1.339,0-2.296,0.808-2.296,2.211v4.06h-2.721
		v-8.502h2.721v1.169c0.553-0.829,1.382-1.339,2.381-1.339C187.467,36.562,187.722,36.583,187.913,36.647z"/>
	<path fill="#FFFFFF" d="M189.038,33.82c0-0.829,0.681-1.488,1.488-1.488s1.487,0.659,1.487,1.488c0,0.808-0.68,1.487-1.487,1.487
		S189.038,34.628,189.038,33.82z M189.166,36.732h2.699v8.502h-2.699V36.732z"/>
	<path fill="#FFFFFF" d="M203.767,40.983c0,2.466-1.849,4.421-4.188,4.421c-0.978,0-1.785-0.34-2.423-0.914v5.867l-2.721-0.021
		V36.732l2.721,0.021v0.723c0.638-0.574,1.445-0.914,2.423-0.914C201.918,36.562,203.767,38.518,203.767,40.983z M201.067,40.983
		c0-1.127-0.893-2.02-2.02-2.02c-1.126,0-2.019,0.893-2.019,2.02c0,1.126,0.893,2.02,2.019,2.02
		C200.175,43.003,201.067,42.109,201.067,40.983z"/>
	<path fill="#FFFFFF" d="M208.78,38.837v3.039c0,0.701,0.403,1.147,0.978,1.147h1.021v2.104c-0.213,0.149-0.786,0.276-1.36,0.276
		c-1.807,0-3.337-1.402-3.337-3.209v-3.358h-1.425v-2.104h1.425v-3.273h2.699v3.273h2.02v2.104H208.78z"/>
	<path fill="#FFFFFF" d="M226.801,36.328c0,2.147-1.657,3.741-3.805,3.741h-2.614v5.165h-2.806V32.481h5.42
		C225.144,32.481,226.801,34.203,226.801,36.328z M224.123,36.35c0-0.829-0.681-1.403-1.573-1.403h-2.168v2.806h2.168
		C223.442,37.752,224.123,37.2,224.123,36.35z"/>
	<path fill="#FFFFFF" d="M238,43.023v2.211c-0.19,0.085-0.446,0.17-0.723,0.17c-1.147,0-2.083-0.574-2.614-1.445
		c-0.68,0.893-1.679,1.445-2.912,1.445c-2.359,0-4.208-1.955-4.208-4.421s1.849-4.421,4.208-4.421c0.979,0,1.786,0.34,2.424,0.914
		v-0.744h2.699v5.463c0,0.701,0.383,0.828,0.744,0.828H238z M234.302,40.983c0-1.127-0.914-2.02-2.02-2.02
		c-1.126,0-2.019,0.893-2.019,2.02c0,1.126,0.893,2.02,2.019,2.02C233.388,43.003,234.302,42.109,234.302,40.983z"/>
	<path fill="#FFFFFF" d="M252.62,39.856v5.378h-2.699v-4.932c0-0.743-0.51-1.339-1.254-1.339c-0.829,0-1.212,0.723-1.212,1.339
		v4.932h-2.721v-4.932c0-0.743-0.488-1.339-1.232-1.339c-0.829,0-1.212,0.723-1.212,1.339v4.932h-2.721v-8.502h2.721v1.041
		c0.553-0.744,1.339-1.211,2.317-1.211c1.084,0,1.934,0.595,2.423,1.487c0.531-0.935,1.467-1.487,2.678-1.487
		C251.579,36.562,252.62,37.88,252.62,39.856z"/>
	<path fill="#FFFFFF" d="M264.285,40.983c0,2.466-1.849,4.421-4.188,4.421c-0.978,0-1.785-0.34-2.423-0.914v5.867l-2.721-0.021
		V36.732l2.721,0.021v0.723c0.638-0.574,1.445-0.914,2.423-0.914C262.437,36.562,264.285,38.518,264.285,40.983z M261.586,40.983
		c0-1.127-0.893-2.02-2.02-2.02c-1.126,0-2.019,0.893-2.019,2.02c0,1.126,0.893,2.02,2.019,2.02
		C260.693,43.003,261.586,42.109,261.586,40.983z"/>
	<path fill="#FFFFFF" d="M274.379,39.856v5.378h-2.721v-4.932c0-0.743-0.531-1.339-1.297-1.339c-0.829,0-1.445,0.723-1.445,1.467
		v4.804h-2.721v-14.56h2.721v7.014c0.596-0.701,1.445-1.126,2.381-1.126C273.019,36.562,274.379,37.986,274.379,39.856z"/>
	<path fill="#FFFFFF" d="M276.693,30.675h2.721v14.56h-2.721V30.675z"/>
	<path fill="#FFFFFF" d="M290.571,41.43h-6.505c0.106,1.212,0.744,1.955,1.978,1.955c0.935,0,1.552-0.403,1.785-1.084h2.614
		c-0.425,1.85-1.998,3.104-4.357,3.104c-2.848,0-4.761-1.764-4.761-4.421s1.934-4.442,4.676-4.442s4.57,1.764,4.57,4.421V41.43z
		 M284.237,39.793h3.528c-0.276-0.744-0.808-1.169-1.722-1.169C285.087,38.624,284.514,39.07,284.237,39.793z"/>
	<path fill="#FFFFFF" d="M295.563,38.837v3.039c0,0.701,0.403,1.147,0.978,1.147h1.021v2.104c-0.213,0.149-0.786,0.276-1.36,0.276
		c-1.807,0-3.337-1.402-3.337-3.209v-3.358h-1.425v-2.104h1.425v-3.273h2.699v3.273h2.02v2.104H295.563z"/>
	<path fill="#FFFFFF" d="M307.911,41.43h-6.505c0.106,1.212,0.744,1.955,1.978,1.955c0.935,0,1.552-0.403,1.785-1.084h2.614
		c-0.425,1.85-1.998,3.104-4.357,3.104c-2.848,0-4.761-1.764-4.761-4.421s1.934-4.442,4.676-4.442s4.57,1.764,4.57,4.421V41.43z
		 M301.577,39.793h3.528c-0.276-0.744-0.808-1.169-1.722-1.169C302.427,38.624,301.854,39.07,301.577,39.793z"/>
	<path fill="#FFFFFF" d="M318.451,41.43h-6.504c0.105,1.212,0.743,1.955,1.977,1.955c0.935,0,1.552-0.403,1.785-1.084h2.614
		c-0.425,1.85-1.998,3.104-4.357,3.104c-2.848,0-4.761-1.764-4.761-4.421s1.934-4.442,4.676-4.442s4.57,1.764,4.57,4.421V41.43z
		 M312.117,39.793h3.528c-0.276-0.744-0.808-1.169-1.722-1.169C312.967,38.624,312.394,39.07,312.117,39.793z"/>
	<path fill="#FFFFFF" d="M326.143,36.647v2.401c-0.191-0.042-0.468-0.085-0.786-0.085c-1.339,0-2.296,0.808-2.296,2.211v4.06h-2.721
		v-8.502h2.721v1.169c0.553-0.829,1.382-1.339,2.381-1.339C325.696,36.562,325.951,36.583,326.143,36.647z"/>
	<path fill="#FFFFFF" d="M327.268,33.82c0-0.829,0.681-1.488,1.488-1.488s1.487,0.659,1.487,1.488c0,0.808-0.68,1.487-1.487,1.487
		S327.268,34.628,327.268,33.82z M327.396,36.732h2.699v8.502h-2.699V36.732z"/>
	<path fill="#FFFFFF" d="M340.849,39.856v5.378h-2.699v-4.932c0-0.765-0.553-1.339-1.34-1.339c-0.786,0-1.424,0.574-1.424,1.339
		v4.932h-2.721v-8.502h2.721v1.041c0.596-0.744,1.445-1.211,2.423-1.211C339.488,36.562,340.849,37.986,340.849,39.856z"/>
	<path fill="#FFFFFF" d="M352.196,45.319c0,3.146-1.85,5.038-4.953,5.038c-2.231,0-3.825-0.999-4.527-2.742l2.487-0.999
		c0.318,0.85,1.062,1.382,2.04,1.382c1.382,0,2.254-0.957,2.254-2.53v-1.126c-0.702,0.659-1.637,1.062-2.7,1.062
		c-2.359,0-4.208-1.955-4.208-4.421c0-2.487,1.849-4.421,4.208-4.421c1.042,0,1.956,0.382,2.657,1.02v-0.85h2.721L352.196,45.319z
		 M349.518,40.983c0-1.127-0.914-2.02-2.04-2.02c-1.127,0-2.02,0.893-2.02,2.02c0,1.126,0.893,2.02,2.02,2.02
		C348.604,43.003,349.518,42.109,349.518,40.983z"/>
	<path fill="#FFFFFF" d="M115.417,53.742c0-0.48,0.384-0.826,0.845-0.826c0.441,0,0.825,0.346,0.825,0.826
		c0,0.441-0.384,0.806-0.825,0.806C115.801,54.548,115.417,54.184,115.417,53.742z M115.666,55.988h1.19v7.678h-1.19V55.988z"/>
	<path fill="#FFFFFF" d="M125.687,58.771v4.895h-1.189v-4.895c0-0.979-0.769-1.747-1.747-1.747s-1.766,0.768-1.766,1.747v4.895
		h-1.19v-7.678h1.19v0.613c0.499-0.479,1.151-0.768,1.861-0.768C124.324,55.834,125.687,57.14,125.687,58.771z"/>
	<path fill="#FFFFFF" d="M134.347,53.339v3.974h4.415v1.189h-4.415v3.974h5.067v1.19h-6.296V52.148h6.296v1.19H134.347z"/>
	<path fill="#FFFFFF" d="M150.684,62.668v0.998c-0.153,0.096-0.365,0.153-0.576,0.153c-0.902,0-1.517-0.537-1.766-1.324
		c-0.729,0.787-1.767,1.324-2.918,1.324c-2.207,0-3.992-1.785-3.992-3.992c0-2.208,1.785-3.993,3.992-3.993
		c1.094,0,2.093,0.441,2.803,1.152v-0.998h1.19v5.682c0,0.71,0.364,0.998,0.786,0.998H150.684z M148.227,59.827
		c0-1.555-1.267-2.803-2.803-2.803c-1.555,0-2.803,1.248-2.803,2.803s1.248,2.803,2.803,2.803
		C146.96,62.63,148.227,61.382,148.227,59.827z"/>
	<path fill="#FFFFFF" d="M156.655,55.892v1.21c-0.173-0.058-0.364-0.077-0.595-0.077c-1.401,0-2.553,1.075-2.553,2.477v4.165h-1.19
		v-7.678h1.19v1.094c0.575-0.768,1.458-1.248,2.553-1.248C156.291,55.834,156.482,55.854,156.655,55.892z"/>
	<path fill="#FFFFFF" d="M158.154,49.538h1.19v14.128h-1.19V49.538z"/>
	<path fill="#FFFFFF" d="M168.424,55.988l-3.301,8.254l-1.632,4.031h-1.267l1.843-4.55l-3.148-7.735h1.324l2.457,6.296l2.381-6.296
		H168.424z"/>
	<path fill="#FFFFFF" d="M173.782,61.478l1.113-0.652c0.403,1.056,1.344,1.766,2.649,1.766c1.286,0,2.303-0.69,2.303-1.919
		c0-2.86-5.604-1.939-5.604-5.644c0-1.882,1.439-3.033,3.205-3.033c1.325,0,2.438,0.634,3.071,1.439l-0.959,0.807
		c-0.461-0.653-1.19-1.018-2.073-1.018c-1.075,0-2.016,0.557-2.016,1.708c0,2.745,5.604,1.785,5.604,5.701
		c0,2.016-1.593,3.187-3.551,3.187C175.817,63.819,174.377,62.898,173.782,61.478z"/>
	<path fill="#FFFFFF" d="M184.514,57.14v4.357c0,0.71,0.538,1.171,1.152,1.171h0.883v0.902c-0.211,0.134-0.634,0.249-1.018,0.249
		c-1.189,0-2.207-0.96-2.207-2.169V57.14h-1.286v-1.151h1.286v-3.341h1.189v3.341h2.055v1.151H184.514z"/>
	<path fill="#FFFFFF" d="M188.354,60.902v-4.914h1.171v4.779c0,1.151,0.729,1.862,1.709,1.862c0.998,0,1.708-0.711,1.708-1.862
		v-4.779h1.171v4.914c0,1.785-1.171,2.917-2.879,2.917C189.506,63.819,188.354,62.688,188.354,60.902z"/>
	<path fill="#FFFFFF" d="M205.362,62.668v0.998c-0.153,0.096-0.365,0.153-0.576,0.153c-0.902,0-1.517-0.537-1.766-1.324
		c-0.729,0.787-1.767,1.324-2.918,1.324c-2.207,0-3.992-1.785-3.992-3.992c0-2.208,1.785-3.993,3.992-3.993
		c1.094,0,2.093,0.441,2.803,1.152v-0.998h1.19v5.682c0,0.71,0.364,0.998,0.786,0.998H205.362z M202.905,59.827
		c0-1.555-1.267-2.803-2.803-2.803c-1.555,0-2.803,1.248-2.803,2.803s1.248,2.803,2.803,2.803
		C201.639,62.63,202.905,61.382,202.905,59.827z"/>
	<path fill="#FFFFFF" d="M211.334,55.892v1.21c-0.173-0.058-0.364-0.077-0.595-0.077c-1.401,0-2.553,1.075-2.553,2.477v4.165h-1.19
		v-7.678h1.19v1.094c0.575-0.768,1.458-1.248,2.553-1.248C210.97,55.834,211.161,55.854,211.334,55.892z"/>
	<path fill="#FFFFFF" d="M214.771,57.14v4.357c0,0.71,0.538,1.171,1.152,1.171h0.883v0.902c-0.211,0.134-0.634,0.249-1.018,0.249
		c-1.189,0-2.207-0.96-2.207-2.169V57.14h-1.286v-1.151h1.286v-3.341h1.189v3.341h2.055v1.151H214.771z"/>
	<path fill="#FFFFFF" d="M224.812,53.339v3.974h4.415v1.189h-4.415v3.974h5.067v1.19h-6.296V52.148h6.296v1.19H224.812z"/>
	<path fill="#FFFFFF" d="M238.327,58.771v4.895h-1.189v-4.895c0-0.979-0.769-1.747-1.747-1.747s-1.766,0.768-1.766,1.747v4.895
		h-1.19v-7.678h1.19v0.613c0.499-0.479,1.151-0.768,1.861-0.768C236.965,55.834,238.327,57.14,238.327,58.771z"/>
	<path fill="#FFFFFF" d="M248.484,55.988v8.35c0,2.207-1.785,3.992-3.993,3.992c-1.728,0-3.206-1.094-3.763-2.648l1.095-0.48
		c0.364,1.114,1.42,1.939,2.668,1.939c1.536,0,2.803-1.268,2.803-2.803v-1.67c-0.729,0.71-1.709,1.151-2.803,1.151
		c-2.207,0-3.992-1.785-3.992-3.992c0-2.227,1.785-3.993,3.992-3.993c1.075,0,2.073,0.423,2.783,1.113v-0.959H248.484z
		 M247.294,59.827c0-1.555-1.267-2.803-2.803-2.803c-1.555,0-2.803,1.248-2.803,2.803c0,1.535,1.248,2.803,2.803,2.803
		C246.027,62.63,247.294,61.362,247.294,59.827z"/>
	<path fill="#FFFFFF" d="M251.288,49.538h1.19v14.128h-1.19V49.538z"/>
	<path fill="#FFFFFF" d="M263.997,62.668v0.998c-0.153,0.096-0.365,0.153-0.576,0.153c-0.902,0-1.517-0.537-1.766-1.324
		c-0.729,0.787-1.767,1.324-2.918,1.324c-2.207,0-3.992-1.785-3.992-3.992c0-2.208,1.785-3.993,3.992-3.993
		c1.094,0,2.093,0.441,2.803,1.152v-0.998h1.19v5.682c0,0.71,0.364,0.998,0.786,0.998H263.997z M261.54,59.827
		c0-1.555-1.267-2.803-2.803-2.803c-1.555,0-2.803,1.248-2.803,2.803s1.248,2.803,2.803,2.803
		C260.273,62.63,261.54,61.382,261.54,59.827z"/>
	<path fill="#FFFFFF" d="M271.522,58.771v4.895h-1.189v-4.895c0-0.979-0.769-1.747-1.747-1.747s-1.766,0.768-1.766,1.747v4.895
		h-1.19v-7.678h1.19v0.613c0.499-0.479,1.151-0.768,1.861-0.768C270.16,55.834,271.522,57.14,271.522,58.771z"/>
	<path fill="#FFFFFF" d="M281.68,49.538v14.128h-1.19v-0.998c-0.729,0.71-1.709,1.151-2.803,1.151c-2.207,0-3.992-1.785-3.992-3.992
		c0-2.208,1.785-3.993,3.992-3.993c1.094,0,2.073,0.441,2.803,1.152v-7.448H281.68z M280.489,59.827
		c0-1.555-1.267-2.803-2.803-2.803c-1.555,0-2.803,1.248-2.803,2.803s1.248,2.803,2.803,2.803
		C279.223,62.63,280.489,61.382,280.489,59.827z"/>
</g>
<line fill="#FD3D1A" stroke="#FFFFFF" stroke-width="2" stroke-miterlimit="10" x1="87.5" y1="15" x2="87.5" y2="78.779"/>
<g>
	<path fill="#FFFFFF" d="M9.741,54.934c-1.514-14.1,33.315-26.247,45.574-27.765c0,0,0.424-0.217,2.979-0.008
		c-1.268,1.099-1.268,1.099-1.268,1.099c-4.014,2.836-16.161,22.467-21.208,31.79c7.298-8.497,14.669-16.157,21.277-23.023
		c2.825-2.936,6.371-6.999,8.955-8.656l0,0c0,0-0.907,2.36-2.337,4.962c-0.379,0.605-0.379,0.605-0.379,0.605
		c-3,4.998-7.767,12.406-11.394,18.859c-6.017,10.709-5.587,12.35-5.439,12.57c0.064,0.007,1.033,0.178,5.509-3.709l-0.066,0.604
		c-3.627,3.148-4.439,4.446-5.437,4.446c-0.396,0-0.67-0.138-0.895-0.33c-1.972-1.686,3.345-11.482,16.955-33.287
		c-1.077,1.124-3.366,3.691-4.5,4.87c-7.61,7.907-16.235,16.868-24.543,26.896c-0.099,0.12-0.4,0.492-0.869,0.346l-0.431-0.135
		l-0.052-0.473c-0.086-1.01,6.437-12.479,9.813-18.088c3.209-5.333,8-12.035,11.224-16.029c-7.973,5.508-14.442,14.343-19.09,21.233
		c-3.092,4.582-5.762,8.539-8.454,10.648c-3.225,2.531-5.289,3.301-6.315,2.352c-0.863-0.799-0.091-2.375,1.964-3.855l0,0
		c-1.186,1.779-1.16,2.76-1.047,2.865c0.005,0.006,0.908,0.449,4.565-2.421c2.524-1.979,5.139-5.855,8.167-10.344
		c4.969-7.364,12.496-16.969,21.39-22.585C40.334,31.4,9.965,42.949,11.072,54.697c0.283,0.676,0.722,1.134,1.338,1.396
		c2.309,0.984,3.347,0.254,4.2-0.105c0.625-0.264,1.167-0.448,3.091-1.164l4.59-1.836c0.506,0.252,0.103,0.734,0.103,0.734
		c0.123-1.662-9.682,4.82-12.513,3.611c-0.977-0.417-1.684-1.167-2.099-2.229"/>
</g>
</svg>
