<?xml version="1.0" encoding="utf-8"?>
<!-- Generator: Adobe Illustrator 16.2.0, SVG Export Plug-In . SVG Version: 6.00 Build 0)  -->
<!DOCTYPE svg PUBLIC "-//W3C//DTD SVG 1.1//EN" "http://www.w3.org/Graphics/SVG/1.1/DTD/svg11.dtd">
<svg version="1.1" id="Layer_1" xmlns="http://www.w3.org/2000/svg" xmlns:xlink="http://www.w3.org/1999/xlink" x="0px" y="0px"
	 width="452.111px" height="100.458px" viewBox="0 0 452.111 100.458" enable-background="new 0 0 452.111 100.458"
	 xml:space="preserve">
<path fill="#203C6D" d="M70.479,6.418l-13.351-3.85V0h36.459v2.568l-13.35,3.85V94.04l13.35,3.85v2.568H57.128V97.89l13.351-3.85
	V6.418z M23.107,94.04l13.352,3.85v2.568H0V97.89l13.352-3.85V6.418L0,2.568V0h36.459v2.568l-13.352,3.85V94.04z"/>
<polygon fill="#003263" points="46.149,30.579 35.32,67.772 40.79,69.649 40.79,70.897 27.227,70.897 27.227,69.649 32.366,67.772 
	47.625,20.89 49.814,20.89 61.901,67.772 66.713,69.649 66.713,70.897 49.432,70.897 49.432,69.649 55.775,67.772 "/>
<g>
	<defs>
		<rect id="SVGID_1_" x="-60.865" y="-320.413" width="592" height="840"/>
	</defs>
	<clipPath id="SVGID_2_">
		<use xlink:href="#SVGID_1_"  overflow="visible"/>
	</clipPath>
	<path clip-path="url(#SVGID_2_)" fill="#003263" d="M46.485,54.214c17.398,3.445,25.606-7.564,25.606-7.564
		s-10.759,5.521-24.771,1.202l0.057,0.031c-17.398-3.447-25.605,7.565-25.605,7.565s10.758-5.522,24.769-1.201L46.485,54.214z"/>
	<polygon clip-path="url(#SVGID_2_)" fill="#203C6D" points="114.475,27.05 114.475,0 118.288,0 118.288,11.645 133.899,11.645 
		133.899,0 137.763,0 137.763,27.05 133.899,27.05 133.899,15.303 118.288,15.303 118.288,27.05 	"/>
	<path clip-path="url(#SVGID_2_)" fill="#203C6D" d="M142.793,3.916c0-0.566,0.194-1.043,0.58-1.429
		c0.386-0.387,0.863-0.58,1.43-0.58c0.566,0,1.043,0.193,1.429,0.58c0.387,0.386,0.58,0.863,0.58,1.429
		c0,0.567-0.193,1.044-0.58,1.43c-0.386,0.387-0.863,0.58-1.429,0.58c-0.567,0-1.044-0.193-1.43-0.58
		C142.987,4.96,142.793,4.483,142.793,3.916 M142.999,9.172h3.555v17.879h-3.555V9.172z"/>
	<path clip-path="url(#SVGID_2_)" fill="#203C6D" d="M150.11,25.843v-3.79c1.069,0.702,2.1,1.238,3.093,1.608
		c0.993,0.371,1.902,0.556,2.727,0.556c0.915,0,1.634-0.169,2.156-0.511c0.521-0.341,0.783-0.806,0.783-1.399
		c0-0.745-0.978-1.6-2.933-2.565c-0.57-0.281-1.01-0.507-1.321-0.674c-1.663-0.85-2.804-1.673-3.422-2.467
		c-0.619-0.794-0.929-1.765-0.929-2.913c0-1.496,0.535-2.683,1.606-3.56c1.07-0.878,2.54-1.317,4.41-1.317
		c1.005,0,1.972,0.121,2.901,0.361c0.928,0.24,1.837,0.613,2.728,1.12v3.466c-1.097-0.597-2.1-1.038-3.01-1.324
		c-0.909-0.285-1.771-0.428-2.583-0.428c-0.749,0-1.327,0.129-1.732,0.385c-0.407,0.257-0.61,0.629-0.61,1.117
		c0,0.898,1.25,1.958,3.749,3.178c0.142,0.065,0.252,0.115,0.33,0.153c1.939,0.981,3.203,1.841,3.794,2.581
		c0.591,0.741,0.886,1.678,0.886,2.811c0,1.574-0.589,2.83-1.766,3.77c-1.178,0.94-2.738,1.41-4.681,1.41
		c-1.119,0-2.185-0.129-3.194-0.386C152.082,26.767,151.087,26.373,150.11,25.843"/>
	<path clip-path="url(#SVGID_2_)" fill="#203C6D" d="M175.923,26.503c-0.552,0.309-1.146,0.538-1.782,0.686
		c-0.636,0.148-1.321,0.222-2.052,0.222c-2.004,0-3.414-0.477-4.229-1.431c-0.817-0.955-1.224-2.699-1.224-5.228v-8.489h-3.04
		v-0.348l6.241-6.916h0.406v4.173h5.564v3.091h-5.564v8.217c0,1.487,0.182,2.449,0.548,2.882c0.365,0.433,1.05,0.648,2.051,0.648
		c0.539,0,1.065-0.07,1.579-0.214c0.513-0.141,1.014-0.362,1.502-0.661V26.503z"/>
	<path clip-path="url(#SVGID_2_)" fill="#203C6D" d="M177.668,18.111c0-2.591,0.921-4.788,2.764-6.593
		c1.842-1.805,4.09-2.707,6.746-2.707c1.249,0,2.445,0.236,3.584,0.706c1.14,0.47,2.162,1.144,3.064,2.02
		c0.915,0.929,1.611,1.947,2.087,3.055c0.477,1.108,0.716,2.282,0.716,3.519c0,1.225-0.246,2.418-0.735,3.577
		c-0.49,1.161-1.179,2.172-2.068,3.035c-0.902,0.891-1.917,1.56-3.044,2.011c-1.127,0.451-2.329,0.676-3.604,0.676
		c-2.656,0-4.904-0.901-6.746-2.706C178.589,22.899,177.668,20.701,177.668,18.111 M181.378,18.117c0,1.658,0.56,3.072,1.683,4.243
		c1.122,1.168,2.476,1.753,4.062,1.753c1.573,0,2.923-0.588,4.052-1.763c1.128-1.177,1.693-2.587,1.693-4.233
		c0-1.631-0.562-3.033-1.684-4.202c-1.122-1.17-2.475-1.755-4.061-1.755c-1.586,0-2.94,0.585-4.062,1.755
		C181.938,15.084,181.378,16.486,181.378,18.117"/>
	<path clip-path="url(#SVGID_2_)" fill="#203C6D" d="M200.081,27.05V9.171h3.555v3.916c0.991-1.57,1.882-2.667,2.674-3.29
		c0.792-0.623,1.651-0.935,2.577-0.935c0.644,0,1.297,0.144,1.961,0.429c0.662,0.285,1.367,0.726,2.114,1.322l-1.931,3.195
		c-0.579-0.506-1.133-0.873-1.661-1.101c-0.528-0.227-1.081-0.341-1.66-0.341c-0.966,0-1.809,0.406-2.529,1.22
		c-0.721,0.813-1.236,1.942-1.545,3.388V27.05H200.081z"/>
	<path clip-path="url(#SVGID_2_)" fill="#203C6D" d="M214.765,3.916c0-0.566,0.193-1.043,0.579-1.429
		c0.387-0.387,0.863-0.58,1.43-0.58c0.567,0,1.043,0.193,1.43,0.58c0.386,0.386,0.579,0.863,0.579,1.429
		c0,0.567-0.193,1.044-0.579,1.43c-0.387,0.387-0.863,0.58-1.43,0.58c-0.567,0-1.043-0.193-1.43-0.58
		C214.958,4.96,214.765,4.483,214.765,3.916 M214.971,9.172h3.555v17.879h-3.555V9.172z"/>
	<path clip-path="url(#SVGID_2_)" fill="#203C6D" d="M237.176,22.825v3.644c-0.901,0.32-1.778,0.557-2.631,0.711
		c-0.85,0.153-1.695,0.23-2.534,0.23c-2.914,0-5.307-0.872-7.177-2.619c-1.87-1.747-2.805-3.974-2.805-6.68
		c0-2.643,0.934-4.852,2.802-6.632c1.867-1.779,4.205-2.668,7.012-2.668c0.863,0,1.714,0.091,2.551,0.271
		c0.837,0.181,1.661,0.459,2.473,0.834v3.789c-0.824-0.493-1.642-0.857-2.448-1.091c-0.808-0.234-1.629-0.351-2.468-0.351
		c-1.832,0-3.326,0.548-4.481,1.644c-1.154,1.096-1.731,2.502-1.731,4.216c0,1.756,0.587,3.184,1.764,4.285
		c1.176,1.103,2.721,1.654,4.633,1.654c0.879,0,1.734-0.102,2.568-0.305S236.362,23.244,237.176,22.825"/>
	<path clip-path="url(#SVGID_2_)" fill="#203C6D" d="M249.518,25.568c-0.9,0.636-1.75,1.095-2.555,1.374
		c-0.803,0.277-1.667,0.417-2.592,0.417c-1.594,0-2.84-0.382-3.739-1.148c-0.899-0.765-1.351-1.818-1.351-3.156
		c0-1.261,0.49-2.367,1.47-3.319c0.979-0.951,2.451-1.756,4.421-2.413l4.209-1.402c0.013-0.103,0.022-0.206,0.028-0.309
		c0.007-0.103,0.011-0.25,0.011-0.443c0-1.068-0.261-1.836-0.78-2.305c-0.521-0.47-1.376-0.705-2.569-0.705
		c-0.988,0-2.01,0.208-3.063,0.624c-1.054,0.415-2.106,1.031-3.159,1.849v-3.501c0.915-0.749,1.937-1.315,3.069-1.697
		c1.134-0.381,2.336-0.572,3.609-0.572c2.291,0,3.957,0.506,5.001,1.517c1.04,1.011,1.563,2.643,1.563,4.898v7.52
		c0,0.646,0.054,1.105,0.164,1.375c0.108,0.271,0.295,0.404,0.554,0.404c0.219,0,0.447-0.059,0.686-0.182
		c0.238-0.12,0.632-0.404,1.173-0.848v2.178c-0.647,0.559-1.301,0.971-1.958,1.237c-0.66,0.264-1.347,0.398-2.059,0.398
		c-0.686,0-1.198-0.144-1.542-0.429C249.767,26.646,249.569,26.191,249.518,25.568 M249.381,23.394v-5.205
		c-2.384,0.745-4.027,1.431-4.931,2.059c-0.902,0.629-1.355,1.36-1.355,2.195c0,0.73,0.234,1.296,0.702,1.693
		c0.467,0.398,1.124,0.596,1.971,0.596c0.628,0,1.243-0.113,1.845-0.34C248.215,24.167,248.805,23.833,249.381,23.394"/>
	<rect x="257.863" clip-path="url(#SVGID_2_)" fill="#203C6D" width="3.556" height="27.05"/>
	<path clip-path="url(#SVGID_2_)" fill="#203C6D" d="M272.934,27.05L284.643,0h2.816l11.854,27.05h-3.997l-3.475-7.934h-11.506
		L276.9,27.05H272.934z M281.84,15.612h8.419l-4.267-9.75L281.84,15.612z"/>
	<path clip-path="url(#SVGID_2_)" fill="#203C6D" d="M299.597,25.843v-3.79c1.068,0.702,2.101,1.238,3.095,1.608
		c0.992,0.371,1.899,0.556,2.726,0.556c0.916,0,1.634-0.169,2.155-0.511c0.521-0.341,0.783-0.806,0.783-1.399
		c0-0.745-0.978-1.6-2.933-2.565c-0.569-0.281-1.01-0.507-1.321-0.674c-1.661-0.85-2.804-1.673-3.421-2.467
		c-0.62-0.794-0.93-1.765-0.93-2.913c0-1.496,0.534-2.683,1.607-3.56c1.069-0.878,2.539-1.317,4.408-1.317
		c1.006,0,1.974,0.121,2.9,0.361c0.93,0.24,1.839,0.613,2.729,1.12v3.466c-1.096-0.597-2.101-1.038-3.008-1.324
		c-0.911-0.285-1.771-0.428-2.585-0.428c-0.748,0-1.326,0.129-1.731,0.385c-0.408,0.257-0.611,0.629-0.611,1.117
		c0,0.898,1.25,1.958,3.75,3.178c0.143,0.065,0.253,0.115,0.33,0.153c1.939,0.981,3.203,1.841,3.794,2.581
		c0.591,0.741,0.885,1.678,0.885,2.811c0,1.574-0.589,2.83-1.764,3.77c-1.179,0.94-2.739,1.41-4.683,1.41
		c-1.119,0-2.184-0.129-3.194-0.386C301.569,26.767,300.576,26.373,299.597,25.843"/>
	<path clip-path="url(#SVGID_2_)" fill="#203C6D" d="M314.474,25.843v-3.79c1.069,0.702,2.101,1.238,3.095,1.608
		c0.991,0.371,1.9,0.556,2.727,0.556c0.916,0,1.634-0.169,2.154-0.511c0.522-0.341,0.783-0.806,0.783-1.399
		c0-0.745-0.977-1.6-2.932-2.565c-0.57-0.281-1.01-0.507-1.322-0.674c-1.662-0.85-2.803-1.673-3.421-2.467
		c-0.62-0.794-0.929-1.765-0.929-2.913c0-1.496,0.534-2.683,1.605-3.56c1.07-0.878,2.54-1.317,4.409-1.317
		c1.006,0,1.974,0.121,2.901,0.361c0.929,0.24,1.839,0.613,2.728,1.12v3.466c-1.095-0.597-2.1-1.038-3.008-1.324
		c-0.911-0.285-1.771-0.428-2.584-0.428c-0.749,0-1.327,0.129-1.733,0.385c-0.406,0.257-0.609,0.629-0.609,1.117
		c0,0.898,1.25,1.958,3.75,3.178c0.142,0.065,0.253,0.115,0.33,0.153c1.938,0.981,3.203,1.841,3.794,2.581
		c0.59,0.741,0.885,1.678,0.885,2.811c0,1.574-0.589,2.83-1.765,3.77c-1.179,0.94-2.738,1.41-4.683,1.41
		c-1.119,0-2.183-0.129-3.193-0.386C316.446,26.767,315.454,26.373,314.474,25.843"/>
	<path clip-path="url(#SVGID_2_)" fill="#203C6D" d="M329.299,18.111c0-2.591,0.921-4.788,2.766-6.593
		c1.842-1.805,4.091-2.707,6.744-2.707c1.25,0,2.445,0.236,3.586,0.706c1.14,0.47,2.162,1.144,3.063,2.02
		c0.915,0.929,1.61,1.947,2.087,3.055s0.715,2.282,0.715,3.519c0,1.225-0.244,2.418-0.733,3.577c-0.49,1.161-1.18,2.172-2.068,3.035
		c-0.901,0.891-1.917,1.56-3.044,2.011c-1.128,0.451-2.33,0.676-3.605,0.676c-2.653,0-4.902-0.901-6.744-2.706
		C330.22,22.899,329.299,20.701,329.299,18.111 M333.009,18.117c0,1.658,0.561,3.072,1.685,4.243
		c1.121,1.168,2.476,1.753,4.061,1.753c1.574,0,2.924-0.588,4.053-1.763c1.129-1.177,1.692-2.587,1.692-4.233
		c0-1.631-0.561-3.033-1.683-4.202c-1.122-1.17-2.476-1.755-4.063-1.755c-1.585,0-2.939,0.585-4.061,1.755
		C333.57,15.084,333.009,16.486,333.009,18.117"/>
	<path clip-path="url(#SVGID_2_)" fill="#203C6D" d="M365.624,22.825v3.644c-0.902,0.32-1.779,0.557-2.631,0.711
		c-0.85,0.153-1.695,0.23-2.534,0.23c-2.914,0-5.307-0.872-7.178-2.619c-1.869-1.747-2.805-3.974-2.805-6.68
		c0-2.643,0.934-4.852,2.802-6.632c1.868-1.779,4.205-2.668,7.013-2.668c0.863,0,1.714,0.091,2.551,0.271
		c0.837,0.181,1.661,0.459,2.474,0.834v3.789c-0.825-0.493-1.643-0.857-2.448-1.091c-0.808-0.234-1.629-0.351-2.468-0.351
		c-1.832,0-3.326,0.548-4.481,1.644c-1.154,1.096-1.731,2.502-1.731,4.216c0,1.756,0.589,3.184,1.765,4.285
		c1.175,1.103,2.721,1.654,4.633,1.654c0.88,0,1.734-0.102,2.569-0.305C363.987,23.554,364.809,23.244,365.624,22.825"/>
	<path clip-path="url(#SVGID_2_)" fill="#203C6D" d="M368.966,3.916c0-0.566,0.193-1.043,0.58-1.429
		c0.386-0.387,0.863-0.58,1.429-0.58c0.567,0,1.044,0.193,1.43,0.58c0.388,0.386,0.58,0.863,0.58,1.429
		c0,0.567-0.192,1.044-0.58,1.43c-0.386,0.387-0.862,0.58-1.43,0.58c-0.565,0-1.043-0.193-1.429-0.58
		C369.16,4.96,368.966,4.483,368.966,3.916 M369.172,9.172h3.555v17.879h-3.555V9.172z"/>
	<path clip-path="url(#SVGID_2_)" fill="#203C6D" d="M386.312,25.568c-0.9,0.636-1.75,1.095-2.555,1.374
		c-0.803,0.277-1.667,0.417-2.592,0.417c-1.594,0-2.84-0.382-3.739-1.148c-0.899-0.765-1.351-1.818-1.351-3.156
		c0-1.261,0.49-2.367,1.47-3.319c0.979-0.951,2.451-1.756,4.421-2.413l4.209-1.402c0.013-0.103,0.021-0.206,0.028-0.309
		c0.006-0.103,0.011-0.25,0.011-0.443c0-1.068-0.261-1.836-0.78-2.305c-0.521-0.47-1.376-0.705-2.569-0.705
		c-0.989,0-2.01,0.208-3.063,0.624c-1.054,0.415-2.106,1.031-3.159,1.849v-3.501c0.915-0.749,1.937-1.315,3.069-1.697
		c1.133-0.381,2.336-0.572,3.609-0.572c2.291,0,3.957,0.506,5.001,1.517c1.04,1.011,1.563,2.643,1.563,4.898v7.52
		c0,0.646,0.054,1.105,0.164,1.375c0.108,0.271,0.295,0.404,0.554,0.404c0.219,0,0.447-0.059,0.686-0.182
		c0.238-0.12,0.632-0.404,1.173-0.848v2.178c-0.647,0.559-1.301,0.971-1.959,1.237c-0.659,0.264-1.346,0.398-2.058,0.398
		c-0.686,0-1.198-0.144-1.542-0.429C386.561,26.646,386.363,26.191,386.312,25.568 M386.175,23.394v-5.205
		c-2.384,0.745-4.027,1.431-4.931,2.059c-0.902,0.629-1.355,1.36-1.355,2.195c0,0.73,0.234,1.296,0.702,1.693
		c0.467,0.398,1.124,0.596,1.971,0.596c0.628,0,1.243-0.113,1.845-0.34C385.009,24.167,385.599,23.833,386.175,23.394"/>
	<path clip-path="url(#SVGID_2_)" fill="#203C6D" d="M404.356,26.503c-0.551,0.309-1.146,0.538-1.781,0.686
		c-0.637,0.148-1.319,0.222-2.053,0.222c-2.004,0-3.413-0.477-4.229-1.431c-0.815-0.955-1.225-2.699-1.225-5.228v-8.489h-3.04
		v-0.348l6.241-6.916h0.406v4.173h5.563v3.091h-5.563v8.217c0,1.487,0.183,2.449,0.549,2.882c0.365,0.433,1.049,0.648,2.051,0.648
		c0.539,0,1.064-0.07,1.579-0.214c0.512-0.141,1.015-0.362,1.501-0.661V26.503z"/>
	<path clip-path="url(#SVGID_2_)" fill="#203C6D" d="M407.183,3.916c0-0.566,0.193-1.043,0.58-1.429
		c0.386-0.387,0.863-0.58,1.43-0.58s1.043,0.193,1.43,0.58c0.387,0.386,0.58,0.863,0.58,1.429c0,0.567-0.193,1.044-0.58,1.43
		c-0.387,0.387-0.863,0.58-1.43,0.58s-1.044-0.193-1.43-0.58C407.376,4.96,407.183,4.483,407.183,3.916 M407.389,9.172h3.555v17.879
		h-3.555V9.172z"/>
	<path clip-path="url(#SVGID_2_)" fill="#203C6D" d="M414.448,18.111c0-2.591,0.921-4.788,2.765-6.593
		c1.843-1.805,4.092-2.707,6.745-2.707c1.249,0,2.445,0.236,3.585,0.706c1.141,0.47,2.163,1.144,3.064,2.02
		c0.915,0.929,1.61,1.947,2.087,3.055s0.715,2.282,0.715,3.519c0,1.225-0.245,2.418-0.733,3.577c-0.49,1.161-1.18,2.172-2.068,3.035
		c-0.901,0.891-1.917,1.56-3.044,2.011c-1.128,0.451-2.33,0.676-3.605,0.676c-2.653,0-4.902-0.901-6.745-2.706
		C415.369,22.899,414.448,20.701,414.448,18.111 M418.158,18.117c0,1.658,0.561,3.072,1.685,4.243
		c1.12,1.168,2.476,1.753,4.061,1.753c1.575,0,2.924-0.588,4.052-1.763c1.129-1.177,1.693-2.587,1.693-4.233
		c0-1.631-0.562-3.033-1.683-4.202c-1.122-1.17-2.476-1.755-4.063-1.755c-1.585,0-2.94,0.585-4.061,1.755
		C418.718,15.084,418.158,16.486,418.158,18.117"/>
	<path clip-path="url(#SVGID_2_)" fill="#203C6D" d="M436.809,27.05V9.171h3.555v2.205c0.89-0.853,1.774-1.476,2.657-1.87
		c0.882-0.395,1.832-0.592,2.851-0.592c1.932,0,3.455,0.562,4.568,1.685c1.114,1.123,1.671,2.665,1.671,4.626V27.05h-3.555V16.134
		c0-1.443-0.306-2.509-0.917-3.198c-0.612-0.689-1.562-1.034-2.85-1.034c-0.915,0-1.718,0.177-2.406,0.532
		c-0.689,0.354-1.362,0.937-2.02,1.748V27.05H436.809z"/>
	<polygon clip-path="url(#SVGID_2_)" fill="#ADAFB2" points="113.294,39.317 129.342,39.317 129.342,41.77 122.646,41.77 
		122.646,58.557 119.88,58.557 119.88,41.77 113.294,41.77 	"/>
	<path clip-path="url(#SVGID_2_)" fill="#ADAFB2" d="M131.532,39.349h2.499v8.216c1.047-1.273,2.347-1.913,3.9-1.913
		c0.845,0,1.602,0.212,2.273,0.632c0.671,0.425,1.169,1.006,1.495,1.749c0.327,0.743,0.49,1.847,0.49,3.317v7.206h-2.499v-7.827
		c0-0.924-0.228-1.67-0.683-2.232c-0.456-0.566-1.056-0.849-1.802-0.849c-0.552,0-1.072,0.142-1.56,0.428
		c-0.487,0.283-1.025,0.755-1.614,1.415v9.065h-2.499V39.349z"/>
	<path clip-path="url(#SVGID_2_)" fill="#ADAFB2" d="M156.445,52.442h-8.881c0.064,1.21,0.469,2.173,1.215,2.888
		c0.745,0.716,1.709,1.073,2.888,1.073c1.648,0,3.167-0.507,4.558-1.525v2.441c-0.77,0.514-1.531,0.88-2.286,1.096
		c-0.755,0.22-1.64,0.33-2.656,0.33c-1.391,0-2.516-0.287-3.377-0.864c-0.86-0.578-1.548-1.356-2.066-2.335
		c-0.517-0.974-0.775-2.106-0.775-3.387c0-1.925,0.544-3.493,1.634-4.699c1.088-1.203,2.503-1.808,4.242-1.808
		c1.673,0,3.01,0.586,4.007,1.76c0.998,1.171,1.497,2.743,1.497,4.716V52.442z M147.627,50.949h6.334
		c-0.064-1.002-0.36-1.772-0.889-2.314c-0.529-0.543-1.241-0.814-2.134-0.814c-0.894,0-1.626,0.271-2.196,0.814
		C148.172,49.177,147.8,49.947,147.627,50.949"/>
	<polygon clip-path="url(#SVGID_2_)" fill="#ADAFB2" points="174.735,45.903 177.448,45.903 171.883,58.776 171.013,58.776 
		165.298,45.903 168.038,45.903 171.452,53.688 	"/>
	<path clip-path="url(#SVGID_2_)" fill="#ADAFB2" d="M184.823,45.872c1.924,0,3.523,0.621,4.797,1.866
		c1.274,1.242,1.911,2.802,1.911,4.684c0,1.823-0.646,3.34-1.938,4.547c-1.293,1.206-2.92,1.807-4.88,1.807
		c-1.897,0-3.483-0.613-4.757-1.835c-1.274-1.226-1.911-2.754-1.911-4.59c0-1.85,0.644-3.395,1.932-4.628
		C181.264,46.489,182.88,45.872,184.823,45.872 M184.685,48.135c-1.199,0-2.185,0.393-2.954,1.183
		c-0.77,0.786-1.154,1.792-1.154,3.01c0,1.206,0.394,2.196,1.182,2.959c0.787,0.766,1.799,1.147,3.036,1.147
		c1.227,0,2.233-0.385,3.016-1.159c0.783-0.774,1.175-1.768,1.175-2.975c0-1.202-0.408-2.196-1.223-2.982
		C186.946,48.528,185.921,48.135,184.685,48.135"/>
	<path clip-path="url(#SVGID_2_)" fill="#ADAFB2" d="M195.593,40.575c0.413,0,0.766,0.141,1.059,0.428
		c0.293,0.283,0.44,0.633,0.44,1.042c0,0.404-0.147,0.754-0.44,1.045c-0.293,0.295-0.646,0.44-1.059,0.44
		c-0.385,0-0.724-0.149-1.016-0.444c-0.294-0.299-0.44-0.644-0.44-1.041c0-0.382,0.146-0.723,0.44-1.022
		C194.869,40.724,195.208,40.575,195.593,40.575 M194.357,45.903h2.499v12.653h-2.499V45.903z"/>
	<path clip-path="url(#SVGID_2_)" fill="#ADAFB2" d="M209.979,55.601v2.475c-1.257,0.468-2.487,0.7-3.689,0.7
		c-1.982,0-3.564-0.585-4.743-1.76c-1.179-1.175-1.769-2.747-1.769-4.72c0-1.988,0.574-3.595,1.722-4.813
		c1.148-1.222,2.659-1.831,4.533-1.831c0.652,0,1.238,0.062,1.756,0.188c0.52,0.122,1.161,0.354,1.923,0.692v2.672
		c-1.268-0.806-2.445-1.211-3.53-1.211c-1.13,0-2.059,0.397-2.784,1.191c-0.727,0.794-1.089,1.804-1.089,3.03
		c0,1.293,0.392,2.318,1.177,3.08c0.784,0.759,1.844,1.14,3.175,1.14C207.624,56.434,208.729,56.159,209.979,55.601"/>
	<path clip-path="url(#SVGID_2_)" fill="#ADAFB2" d="M223.588,52.442h-8.881c0.064,1.21,0.469,2.173,1.215,2.888
		c0.745,0.716,1.709,1.073,2.888,1.073c1.648,0,3.167-0.507,4.558-1.525v2.441c-0.77,0.514-1.531,0.88-2.286,1.096
		c-0.755,0.22-1.64,0.33-2.656,0.33c-1.391,0-2.516-0.287-3.377-0.864c-0.859-0.578-1.548-1.356-2.066-2.335
		c-0.517-0.974-0.775-2.106-0.775-3.387c0-1.925,0.544-3.493,1.634-4.699c1.088-1.203,2.503-1.808,4.242-1.808
		c1.673,0,3.01,0.586,4.008,1.76c0.997,1.171,1.496,2.743,1.496,4.716V52.442z M214.771,50.949h6.334
		c-0.064-1.002-0.36-1.772-0.889-2.314c-0.529-0.543-1.24-0.814-2.134-0.814s-1.626,0.271-2.196,0.814
		C215.315,49.177,214.943,49.947,214.771,50.949"/>
	<path clip-path="url(#SVGID_2_)" fill="#ADAFB2" d="M234.422,45.903v-0.754c0-2.036,0.433-3.553,1.3-4.551
		c0.865-1.002,1.904-1.501,3.114-1.501c0.522,0,1.142,0.083,1.856,0.248v2.44c-0.403-0.134-0.789-0.205-1.156-0.205
		c-0.981,0-1.664,0.264-2.045,0.782c-0.38,0.523-0.571,1.45-0.571,2.787v0.754h2.265v2.263h-2.265v10.39h-2.499v-10.39h-1.807
		v-2.263H234.422z"/>
	<path clip-path="url(#SVGID_2_)" fill="#ADAFB2" d="M246.959,45.872c1.924,0,3.522,0.621,4.798,1.866
		c1.274,1.242,1.912,2.802,1.912,4.684c0,1.823-0.646,3.34-1.939,4.547c-1.293,1.206-2.92,1.807-4.88,1.807
		c-1.897,0-3.483-0.613-4.757-1.835c-1.274-1.226-1.911-2.754-1.911-4.59c0-1.85,0.645-3.395,1.933-4.628
		C243.401,46.489,245.016,45.872,246.959,45.872 M246.821,48.135c-1.198,0-2.186,0.393-2.953,1.183
		c-0.771,0.786-1.154,1.792-1.154,3.01c0,1.206,0.394,2.196,1.181,2.959c0.788,0.766,1.8,1.147,3.036,1.147
		c1.229,0,2.234-0.385,3.019-1.159c0.781-0.774,1.175-1.768,1.175-2.975c0-1.202-0.409-2.196-1.225-2.982
		C249.083,48.528,248.058,48.135,246.821,48.135"/>
	<path clip-path="url(#SVGID_2_)" fill="#ADAFB2" d="M259.118,45.903v2.896l0.139-0.22c1.214-1.953,2.424-2.927,3.639-2.927
		c0.946,0,1.937,0.479,2.967,1.43l-1.324,2.2c-0.873-0.825-1.682-1.241-2.429-1.241c-0.81,0-1.509,0.385-2.103,1.155
		c-0.593,0.774-0.889,1.686-0.889,2.739v6.621h-2.515V45.903H259.118z"/>
	<path clip-path="url(#SVGID_2_)" fill="#ADAFB2" d="M275.363,39.349h2.499v8.216c1.045-1.273,2.347-1.913,3.898-1.913
		c0.845,0,1.603,0.212,2.275,0.632c0.668,0.425,1.166,1.006,1.493,1.749c0.326,0.743,0.491,1.847,0.491,3.317v7.206h-2.499v-7.827
		c0-0.924-0.228-1.67-0.684-2.232c-0.456-0.566-1.058-0.849-1.8-0.849c-0.555,0-1.073,0.142-1.561,0.428
		c-0.491,0.283-1.025,0.755-1.615,1.415v9.065h-2.499V39.349z"/>
	<path clip-path="url(#SVGID_2_)" fill="#ADAFB2" d="M290.791,40.575c0.413,0,0.766,0.141,1.061,0.428
		c0.291,0.283,0.44,0.633,0.44,1.042c0,0.404-0.149,0.754-0.44,1.045c-0.295,0.295-0.647,0.44-1.061,0.44
		c-0.381,0-0.724-0.149-1.015-0.444c-0.294-0.299-0.439-0.644-0.439-1.041c0-0.382,0.146-0.723,0.439-1.022
		C290.067,40.724,290.41,40.575,290.791,40.575 M289.556,45.903h2.499v12.653h-2.499V45.903z"/>
	<path clip-path="url(#SVGID_2_)" fill="#ADAFB2" d="M295.07,57.652v-2.696c0.707,0.496,1.43,0.9,2.165,1.207
		c0.738,0.306,1.359,0.46,1.866,0.46c0.522,0,0.971-0.13,1.349-0.386c0.373-0.259,0.562-0.565,0.562-0.923
		c0-0.369-0.122-0.676-0.366-0.919c-0.239-0.244-0.766-0.594-1.575-1.054c-1.615-0.896-2.673-1.666-3.171-2.302
		c-0.499-0.637-0.75-1.332-0.75-2.087c0-0.97,0.381-1.764,1.135-2.377c0.759-0.617,1.732-0.924,2.928-0.924
		c1.238,0,2.511,0.35,3.811,1.046v2.475c-1.488-0.9-2.707-1.352-3.653-1.352c-0.487,0-0.88,0.107-1.179,0.311
		c-0.3,0.208-0.448,0.483-0.448,0.821c0,0.295,0.138,0.578,0.409,0.845c0.274,0.267,0.75,0.585,1.43,0.963l0.892,0.507
		c2.11,1.194,3.163,2.515,3.163,3.96c0,1.038-0.404,1.887-1.214,2.555c-0.813,0.664-1.854,0.994-3.132,0.994
		c-0.75,0-1.418-0.079-2.004-0.24C296.697,58.375,295.958,58.081,295.07,57.652"/>
	<path clip-path="url(#SVGID_2_)" fill="#ADAFB2" d="M304.744,47.919l4.7-4.641v2.625h4.008v2.264h-4.008v6.181
		c0,1.446,0.601,2.165,1.803,2.165c0.9,0,1.852-0.291,2.85-0.88v2.334c-0.962,0.542-2.013,0.809-3.147,0.809
		c-1.147,0-2.103-0.334-2.861-1.002c-0.239-0.2-0.436-0.428-0.593-0.68c-0.152-0.251-0.287-0.581-0.393-0.99
		c-0.103-0.408-0.157-1.183-0.157-2.33v-5.607h-2.201V47.919z"/>
	<path clip-path="url(#SVGID_2_)" fill="#ADAFB2" d="M321.955,45.872c1.926,0,3.525,0.621,4.798,1.866
		c1.274,1.242,1.91,2.802,1.91,4.684c0,1.823-0.645,3.34-1.938,4.547c-1.293,1.206-2.92,1.807-4.881,1.807
		c-1.896,0-3.48-0.613-4.758-1.835c-1.272-1.226-1.91-2.754-1.91-4.59c0-1.85,0.646-3.395,1.934-4.628
		C318.395,46.489,320.009,45.872,321.955,45.872 M321.818,48.135c-1.203,0-2.186,0.393-2.955,1.183
		c-0.771,0.786-1.155,1.792-1.155,3.01c0,1.206,0.393,2.196,1.183,2.959c0.785,0.766,1.8,1.147,3.037,1.147
		c1.227,0,2.232-0.385,3.015-1.159c0.785-0.774,1.175-1.768,1.175-2.975c0-1.202-0.409-2.196-1.222-2.982
		C324.077,48.528,323.051,48.135,321.818,48.135"/>
	<path clip-path="url(#SVGID_2_)" fill="#ADAFB2" d="M334.113,45.903v2.896l0.138-0.22c1.215-1.953,2.429-2.927,3.643-2.927
		c0.947,0,1.933,0.479,2.963,1.43l-1.324,2.2c-0.873-0.825-1.682-1.241-2.425-1.241c-0.81,0-1.513,0.385-2.103,1.155
		c-0.593,0.774-0.892,1.686-0.892,2.739v6.621h-2.515V45.903H334.113z"/>
	<polygon clip-path="url(#SVGID_2_)" fill="#ADAFB2" points="351.202,45.903 353.996,45.903 345.048,65 342.255,65 346.538,55.86 
		341.657,45.903 344.51,45.903 347.925,53.047 	"/>
</g>
</svg>
