<?xml version="1.0" encoding="utf-8"?>
<!-- Generator: Adobe Illustrator 16.0.0, SVG Export Plug-In . SVG Version: 6.00 Build 0)  -->
<!DOCTYPE svg PUBLIC "-//W3C//DTD SVG 1.1//EN" "http://www.w3.org/Graphics/SVG/1.1/DTD/svg11.dtd">
<svg version="1.1" id="Layer_1" xmlns="http://www.w3.org/2000/svg" xmlns:xlink="http://www.w3.org/1999/xlink" x="0px" y="0px"
	 width="280.033px" height="280px" viewBox="0 0 280.033 280" enable-background="new 0 0 280.033 280" xml:space="preserve">
<linearGradient id="SVGID_1_" gradientUnits="userSpaceOnUse" x1="0" y1="140.2666" x2="280.5327" y2="140.2666">
	<stop  offset="0" style="stop-color:#379860"/>
	<stop  offset="1" style="stop-color:#00A0C6"/>
</linearGradient>
<rect fill="url(#SVGID_1_)" width="280.533" height="280.533"/>
<g>
	<path fill="#FFFFFF" stroke="#FFFFFF" stroke-width="4" stroke-miterlimit="10" d="M5.604,174.101
		c-7.179-66.846,157.942-124.43,216.054-131.626c0,0,2.019-1.03,14.13-0.035c-6.01,5.207-6.01,5.207-6.01,5.207
		c-19.023,13.445-76.616,106.509-100.546,150.708c34.604-40.28,69.548-76.597,100.872-109.145
		c13.389-13.918,30.202-33.181,42.451-41.038l0,0c0,0-4.296,11.189-11.078,23.522c-1.792,2.869-1.792,2.869-1.792,2.869
		c-14.223,23.692-36.823,58.816-54.019,89.41c-28.523,50.767-26.488,58.544-25.783,59.593c0.3,0.03,4.896,0.84,26.112-17.586
		l-0.307,2.865c-17.2,14.927-21.049,21.08-25.777,21.08c-1.871,0-3.177-0.652-4.241-1.565
		c-9.352-7.987,15.857-54.436,80.377-157.807c-5.102,5.326-15.95,17.498-21.331,23.089
		c-36.084,37.483-76.971,79.968-116.356,127.507c-0.469,0.565-1.899,2.335-4.117,1.638l-2.045-0.639l-0.247-2.24
		c-0.41-4.79,30.514-59.167,46.522-85.753c15.215-25.282,37.928-57.058,53.209-75.992c-37.799,26.111-68.466,67.998-90.504,100.66
		c-14.658,21.723-27.318,40.482-40.078,50.482c-15.289,11.998-25.075,15.647-29.938,11.149c-4.092-3.791-0.431-11.264,9.312-18.278
		l0,0c-5.621,8.434-5.5,13.083-4.965,13.584c0.025,0.027,4.305,2.126,21.644-11.476c11.967-9.385,24.367-27.761,38.722-49.037
		c23.552-34.914,59.236-80.449,101.405-107.076C150.641,62.537,6.669,117.286,11.916,172.98c1.345,3.204,3.426,5.373,6.346,6.621
		c10.946,4.664,15.869,1.205,19.912-0.501c2.96-1.25,5.534-2.123,14.653-5.518l21.761-8.702c2.397,1.191,0.486,3.481,0.486,3.481
		c0.583-7.881-45.899,22.851-59.32,17.122c-4.633-1.979-7.984-5.534-9.95-10.566"/>
</g>
</svg>
