<?xml version="1.0" encoding="utf-8"?>
<!-- Generator: Adobe Illustrator 16.0.0, SVG Export Plug-In . SVG Version: 6.00 Build 0)  -->
<!DOCTYPE svg PUBLIC "-//W3C//DTD SVG 1.1//EN" "http://www.w3.org/Graphics/SVG/1.1/DTD/svg11.dtd">
<svg version="1.1" id="Layer_1" xmlns="http://www.w3.org/2000/svg" xmlns:xlink="http://www.w3.org/1999/xlink" x="0px" y="0px"
	 width="280.033px" height="280px" viewBox="0 0 280.033 280" enable-background="new 0 0 280.033 280" xml:space="preserve">
<linearGradient id="SVGID_1_" gradientUnits="userSpaceOnUse" x1="0" y1="140.2666" x2="280.5327" y2="140.2666">
	<stop  offset="0" style="stop-color:#379860"/>
	<stop  offset="1" style="stop-color:#00A0C6"/>
</linearGradient>
<rect fill="url(#SVGID_1_)" width="280.533" height="280.533"/>
<g>
	<path fill="#FFFFFF" stroke="#FFFFFF" stroke-width="10" stroke-miterlimit="10" d="M-28.741,187.633
		c-7.538-70.185,165.83-130.645,226.846-138.2c0,0,2.119-1.082,14.836-0.037c-6.311,5.467-6.311,5.467-6.311,5.467
		c-19.974,14.116-80.443,111.829-105.568,158.235c36.334-42.291,73.021-80.423,105.91-114.596
		c14.058-14.613,31.711-34.838,44.572-43.088l0,0c0,0-4.511,11.749-11.632,24.697c-1.881,3.013-1.881,3.013-1.881,3.013
		c-14.934,24.875-38.663,61.754-56.717,93.877c-29.948,53.301-27.812,61.467-27.071,62.568c0.314,0.031,5.142,0.882,27.416-18.465
		l-0.321,3.009c-18.06,15.672-22.101,22.133-27.064,22.133c-1.965,0-3.336-0.685-4.454-1.644
		c-9.818-8.386,16.649-57.155,84.393-165.688c-5.356,5.593-16.747,18.371-22.397,24.242C173.929,142.512,131,187.118,89.647,237.031
		c-0.492,0.594-1.995,2.451-4.323,1.72l-2.147-0.671l-0.259-2.352c-0.431-5.029,32.039-62.122,48.847-90.036
		c15.975-26.545,39.822-59.908,55.866-79.788c-39.687,27.416-71.885,71.394-95.023,105.688
		c-15.391,22.809-28.684,42.505-42.08,53.005c-16.053,12.597-26.328,16.429-31.434,11.706c-4.296-3.98-0.453-11.826,9.776-19.191
		l0,0c-5.901,8.854-5.774,13.736-5.212,14.262c0.026,0.028,4.52,2.232,22.724-12.049c12.564-9.854,25.585-29.146,40.656-51.486
		c24.729-36.657,62.195-84.467,106.47-112.424C123.541,70.497-27.624,127.98-22.115,186.457c1.412,3.363,3.597,5.641,6.663,6.951
		c11.493,4.896,16.661,1.266,20.906-0.526c3.108-1.312,5.81-2.228,15.385-5.793l22.848-9.137c2.517,1.252,0.51,3.655,0.51,3.655
		c0.612-8.273-48.192,23.992-62.284,17.978c-4.864-2.077-8.383-5.811-10.447-11.094"/>
</g>
</svg>
