<?xml version="1.0" encoding="utf-8"?>
<!-- Generator: Adobe Illustrator 16.0.0, SVG Export Plug-In . SVG Version: 6.00 Build 0)  -->
<!DOCTYPE svg PUBLIC "-//W3C//DTD SVG 1.1//EN" "http://www.w3.org/Graphics/SVG/1.1/DTD/svg11.dtd">
<svg version="1.1" id="Capa_1" xmlns="http://www.w3.org/2000/svg" xmlns:xlink="http://www.w3.org/1999/xlink" x="0px" y="0px"
	 width="205px" height="200px" viewBox="97.5 0 205 200" enable-background="new 97.5 0 205 200" xml:space="preserve">
<g>
	<path fill="#FFFFFF" d="M298.248,189.801l-48.603-48.604c13.037-14.989,20.931-34.545,20.931-55.92
		C270.576,38.227,232.306,0,185.3,0c-47.052,0-85.277,38.271-85.277,85.277s38.271,85.277,85.277,85.277
		c21.374,0,40.931-7.894,55.92-20.932l48.603,48.604c1.153,1.152,2.705,1.773,4.213,1.773s3.061-0.576,4.213-1.773
		C300.555,195.92,300.555,192.106,298.248,189.801z M111.951,85.277c0-40.443,32.904-73.304,73.304-73.304
		c40.443,0,73.304,32.904,73.304,73.304c0,40.398-32.86,73.348-73.304,73.348C144.855,158.625,111.951,125.721,111.951,85.277z"/>
</g>
</svg>
