<?xml version="1.0" encoding="utf-8"?>
<!-- Generator: Adobe Illustrator 16.0.0, SVG Export Plug-In . SVG Version: 6.00 Build 0)  -->
<!DOCTYPE svg PUBLIC "-//W3C//DTD SVG 1.1//EN" "http://www.w3.org/Graphics/SVG/1.1/DTD/svg11.dtd">
<svg version="1.1" id="Layer_1" xmlns="http://www.w3.org/2000/svg" xmlns:xlink="http://www.w3.org/1999/xlink" x="0px" y="0px"
	 width="361.545px" height="183.818px" viewBox="0 0 361.545 183.818" enable-background="new 0 0 361.545 183.818"
	 xml:space="preserve">
<g>
	<linearGradient id="SVGID_1_" gradientUnits="userSpaceOnUse" x1="219.7017" y1="168.252" x2="225.0054" y2="168.252">
		<stop  offset="0" style="stop-color:#379860"/>
		<stop  offset="1" style="stop-color:#00A0C6"/>
	</linearGradient>
	<path fill="url(#SVGID_1_)" d="M223.277,176.125h1.729c0,0-0.441-6.572-0.494-7.364c-0.74-5.479-4.81-8.384-4.81-8.384
		c2.82,5.823,3.575,8.129,3.41,14.807C222.948,176.211,223.277,176.125,223.277,176.125z"/>
	<linearGradient id="SVGID_2_" gradientUnits="userSpaceOnUse" x1="213.9106" y1="157.8569" x2="219.7222" y2="157.8569">
		<stop  offset="0" style="stop-color:#379860"/>
		<stop  offset="1" style="stop-color:#00A0C6"/>
	</linearGradient>
	<path fill="url(#SVGID_2_)" d="M219.702,160.377c-1.325-2.008-2.622-3.155-3.603-3.881c-0.994-0.724-1.698-1.038-2.188-1.277
		c0.769,0.298,2.59,1.588,3.848,2.99C219.039,159.586,219.864,160.902,219.702,160.377z"/>
	<linearGradient id="SVGID_3_" gradientUnits="userSpaceOnUse" x1="182.3931" y1="152.1519" x2="183.7144" y2="152.1519">
		<stop  offset="0" style="stop-color:#379860"/>
		<stop  offset="1" style="stop-color:#00A0C6"/>
	</linearGradient>
	<path fill="url(#SVGID_3_)" d="M183.714,152.386c-0.396-0.14-0.924-0.327-1.321-0.468
		C183.056,152.172,183.482,152.331,183.714,152.386z"/>
	<linearGradient id="SVGID_4_" gradientUnits="userSpaceOnUse" x1="5.5781" y1="86.6255" x2="356.7173" y2="86.6255">
		<stop  offset="0" style="stop-color:#379860"/>
		<stop  offset="1" style="stop-color:#00A0C6"/>
	</linearGradient>
	<path fill="url(#SVGID_4_)" d="M252.49,111.708c0,0-0.183-0.208-0.364-0.415c-0.195-0.197-0.393-0.393-0.393-0.393
		c1.341,2.016,1.763,4.062,2.539,6.457c0.777,2.391,1.191,4.947,1.188,7.535c-0.015,5.171-0.668,10.668-3.512,15.092
		c-2.805,4.463-6.995,7.865-11.549,10.262c-4.576,2.414-9.534,3.91-14.474,4.855c0,0,0.332-0.08,0.663-0.16
		c0.332-0.075,0.66-0.175,0.66-0.175c-6.262,1.265-12.619,1.571-18.88,1.274c-6.265-0.322-12.453-1.289-18.455-2.875
		c-3.001-0.793-5.948-1.771-8.82-2.928c-2.874-1.154-5.667-2.512-8.308-4.135c-1.324-0.805-2.605-1.682-3.822-2.646
		c-1.227-0.947-2.378-2.001-3.439-3.141c-2.134-2.254-3.85-5-4.604-8.07c-0.801-3.062-0.449-6.377,0.792-9.269
		c0.606-1.458,1.462-2.792,2.407-4.039c0.461-0.636,0.995-1.206,1.51-1.797c0.553-0.551,1.086-1.124,1.678-1.634
		c4.663-4.181,10.349-6.972,16.202-8.997c5.882-2.008,12.049-3.176,18.297-3.582c6.248-0.392,12.611,0.046,18.813,1.578
		c-0.778-0.161-1.054-0.161-1.859-0.321c2.412,0.447,5.096,1.059,7.678,2.106c0.658,0.3-0.763-0.177-1.604-0.468
		c2.517,0.986,5.562,2.383,8.593,4.338c3.014,1.973,5.978,4.555,8.28,7.571c2.349,2.981,3.446,6.316,4.47,9.325
		c1.026,3.021,1.408,5.684,1.586,7.416c0.197,1.562,0.522,3.668,0.589,4.186c0.083,0.519-0.038-0.551-0.026-1.438
		c0.171,2.604,0.092,5.252-0.348,7.859c-0.44,2.604-0.703,5.227-1.96,7.567c-0.596,1.188-1.356,2.28-2.146,3.343
		c-0.831,1.026-1.715,2.017-2.704,2.889c-1.955,1.766-4.206,3.168-6.574,4.255c-4.767,2.154-9.99,3.057-15.179,3.128
		c-5.199,0.065-10.411-0.705-15.429-2.203c-5-1.531-9.862-3.782-14.061-7.111c-2.091-1.66-4.002-3.611-5.521-5.889
		c-0.77-1.128-1.406-2.363-1.918-3.648c-0.515-1.285-0.886-2.644-1.06-4.03c-0.343-2.783-0.127-5.546,0.53-8.235
		c0.66-2.676,1.844-5.219,3.465-7.406c1.617-2.195,3.651-4.029,5.899-5.455c2.261-1.414,4.726-2.423,7.26-3.064
		c0.976-0.249,1.575-0.262,1.85-0.271c0.276,0,0.239,0.066-0.021,0.177c1.867-0.406,3.785-0.495,5.698-0.517
		c1.913,0.09,3.842,0.242,5.721,0.717c1.896,0.4,3.728,1.088,5.515,1.882l1.307,0.677l0.655,0.339l0.625,0.396l1.251,0.797
		c0.41,0.273,0.791,0.598,1.187,0.895c3.144,2.427,5.782,5.604,7.624,9.227c0.924,1.807,1.701,3.699,2.281,5.653
		c0.591,1.948,1.067,3.944,1.274,6.014c0.195,2.063,0.174,4.203-0.34,6.287c-0.491,2.078-1.496,4.079-2.946,5.641
		c-1.435,1.577-3.222,2.729-5.088,3.528c-1.875,0.794-3.829,1.295-5.791,1.578c-3.931,0.572-7.884,0.42-11.757-0.146
		c-1.938-0.294-3.858-0.692-5.754-1.255c-0.948-0.287-1.89-0.607-2.823-1.022c-0.467-0.21-0.932-0.444-1.404-0.755
		c-0.31-0.206-0.617-0.477-0.857-0.768c-0.236-0.303-0.344-0.686-0.347-1.064c0.048-0.5,0.22-0.98,0.503-1.414
		c0.166-0.241,0.271-0.359,0.412-0.51c0.133-0.146,0.273-0.268,0.416-0.391c0.568-0.473,1.178-0.812,1.795-1.09
		c1.235-0.547,2.52-0.84,3.806-0.996c2.571-0.295,5.182,0.016,7.612,0.878c0.698,0.174-0.179-0.211-0.818-0.44
		c-0.643-0.207-1.012-0.402,0.797,0.074c-2.628-0.945-5.355-1.195-7.941-0.818c-1.294,0.191-2.559,0.537-3.767,1.122
		c-0.603,0.302-1.193,0.649-1.747,1.152c-0.138,0.13-0.273,0.257-0.403,0.411c-0.064,0.073-0.13,0.146-0.192,0.232
		c-0.064,0.09-0.159,0.218-0.227,0.33c-0.279,0.458-0.423,0.964-0.468,1.473c-0.073,1.271,1.491,2.121,1.978,2.361
		c0.691,0.35,1.372,0.613,2.053,0.853c1.364,0.466,2.728,0.816,4.102,1.112c2.745,0.588,5.523,0.957,8.396,1.139
		c0,0-0.341,0.025-0.682,0.049c-0.341,0.02-0.683,0.039-0.683,0.039c1.923,0.145,2.991,0.107,3.625,0.064
		c0.634-0.037,0.839-0.104,1.051-0.153c0.211-0.048,0.431-0.106,1.1-0.167c0.667-0.084,1.782-0.144,3.778-0.49
		c3.152-0.607-0.743,0.384,0.715,0.056c2.035-0.495,4.072-1.235,5.942-2.413c1.867-1.164,3.538-2.84,4.625-4.888
		c1.093-2.044,1.614-4.357,1.677-6.599c0.096-2.254-0.225-4.453-0.693-6.566c-0.249-1.053-0.573-2.078-0.859-3.115
		c-0.339-1.019-0.749-2.012-1.123-3.014c-0.476-0.955-0.905-1.936-1.425-2.858l-0.823-1.356l-0.411-0.677l-0.467-0.634
		c-2.446-3.402-5.574-6.203-9.047-8.037c-0.409-0.263-0.964-0.594-1.635-0.975c-0.69-0.335-1.505-0.703-2.411-1.072
		c-1.838-0.668-4.072-1.279-6.43-1.561c-2.358-0.262-4.806-0.232-7.028,0.016c-1.102,0.189-2.165,0.302-3.116,0.562
		c-0.478,0.115-0.938,0.207-1.368,0.32c-0.426,0.129-0.827,0.25-1.199,0.361l-0.761,0.291l-0.737,0.346
		c-0.486,0.236-0.977,0.449-1.441,0.695c-0.906,0.539-1.805,1.004-2.543,1.582c-0.377,0.273-0.742,0.527-1.071,0.782
		c-0.312,0.281-0.605,0.544-0.874,0.784c-0.266,0.246-0.508,0.466-0.712,0.673c-0.19,0.225-0.351,0.421-0.479,0.591l-0.978,1.004
		l-0.875,1.1l-0.438,0.554c-0.141,0.188-0.258,0.396-0.387,0.593l-0.757,1.196c-0.243,0.407-0.429,0.847-0.646,1.268
		c-0.195,0.431-0.445,0.839-0.586,1.296c-0.311,0.9-0.691,1.777-0.873,2.717l-0.334,1.391l-0.193,1.416
		c-0.047,0.473-0.154,0.943-0.152,1.42l-0.039,1.424c-0.072,1.903,0.219,3.883,0.799,5.718c1.163,3.708,3.49,6.854,6.197,9.37
		c2.722,2.529,5.852,4.492,9.12,6.066c6.56,3.124,13.733,4.721,20.946,4.877c3.608,0.043,7.243-0.261,10.787-1.129
		c3.537-0.859,7.006-2.242,10.096-4.346c3.087-2.094,5.735-4.969,7.51-8.366c1.792-3.39,2.712-7.212,2.922-11.015
		c0.134-1.904,0.06-3.808-0.1-5.693c-0.111-0.941-0.165-1.888-0.343-2.819l-0.228-1.403c-0.08-0.467-0.199-0.926-0.298-1.391
		c-0.386-1.857-0.985-3.664-1.639-5.441l-0.561-1.309l-0.279-0.651l-0.319-0.634l-0.642-1.266l-0.719-1.223l-0.362-0.609
		l-0.396-0.584l-0.8-1.166c-0.586-0.734-1.133-1.506-1.773-2.189c-1.22-1.429-2.599-2.697-4.031-3.881
		c-1.437-1.186-2.986-2.201-4.563-3.159c-1.607-0.899-3.241-1.751-4.939-2.437c-3.381-1.42-6.919-2.369-10.489-3.025
		c-3.578-0.619-7.2-0.936-10.821-0.945c-6.775,0.148-13.853,1.162-20.895,3.317c-3.518,1.078-7.02,2.46-10.408,4.233
		c-3.362,1.807-6.661,3.968-9.455,6.854c-1.392,1.44-2.655,3.058-3.644,4.88c-0.996,1.814-1.687,3.857-1.899,5.986
		c-0.225,2.125,0.031,4.297,0.672,6.333c0.649,2.04,1.692,3.923,2.964,5.582c2.558,3.33,5.86,5.903,9.346,8.003
		c3.496,2.105,7.224,3.746,11.029,5.075c0.201,0.093,0.157,0.104-0.053,0.051c4.979,1.697,11.261,3.204,17.883,4.011
		c6.62,0.805,13.573,0.921,19.785,0.248c-0.001,0,2.627-0.336,5.21-0.917c2.591-0.551,5.118-1.353,5.118-1.353
		c4.52-1.26,8.95-3.094,12.894-5.832c3.939-2.713,7.35-6.414,9.489-10.876c2.15-4.457,3.086-9.48,2.804-14.47
		c-0.31-5.003-2.175-9.836-4.985-13.861c-2.805-4.047-6.372-7.443-10.244-10.307c-3.869-2.887-8.059-5.266-12.369-7.33
		c-4.322-2.043-8.774-3.777-13.315-5.215c-4.536-1.453-9.151-2.632-13.813-3.567c-9.319-1.878-18.83-2.813-28.349-2.64
		c-4.758,0.119-9.521,0.508-14.229,1.361c-4.698,0.86-9.373,2.139-13.735,4.301c-2.175,1.08-4.268,2.393-6.13,4.039
		c-1.858,1.641-3.477,3.643-4.574,5.959c-0.231,0.601-0.511,1.173-0.696,1.798c-0.153,0.636-0.395,1.254-0.433,1.917l-0.116,0.981
		c-0.013,0.327,0.009,0.658,0.013,0.986c-0.02,0.662,0.114,1.305,0.219,1.95c0.492,2.582,1.76,4.863,3.237,6.866
		c1.483,2.018,3.244,3.756,5.079,5.363c1.842,1.607,3.784,3.072,5.797,4.411c4.006,2.715,8.25,4.99,12.564,7.068
		c9.841,4.66,19.979,8.107,30.152,10.768c10.177,2.648,20.426,4.488,30.685,5.33c5.127,0.426,10.261,0.584,15.375,0.363
		c2.559-0.086,5.108-0.325,7.649-0.623c2.537-0.344,5.065-0.77,7.559-1.384c2.489-0.636,4.96-1.384,7.343-2.41
		c2.378-1.035,4.685-2.298,6.792-3.897c2.103-1.598,4.015-3.541,5.462-5.847c1.456-2.294,2.435-4.911,2.913-7.592
		c0.059-0.335,0.144-0.667,0.18-1.006l0.098-1.016c0.067-0.677,0.144-1.353,0.116-2.032c-0.007-0.68,0.015-1.359-0.02-2.037
		l-0.21-2.023c-0.399-2.686-1.171-5.301-2.287-7.74c-1.161-2.412-2.563-4.682-4.193-6.75c-1.653-2.039-3.42-3.982-5.366-5.694
		c-3.838-3.505-8.113-6.406-12.548-8.96c-4.439-2.553-9.059-4.751-13.775-6.699c-9.444-3.885-19.274-6.804-29.309-9.086
		c-10.039-2.273-20.303-3.892-30.749-4.859c0.115-0.052-0.557-0.159,1.601,0.047c-12.05-1.233-23.643-1.729-35.041-1.172
		c-5.697,0.29-11.346,0.838-16.944,1.809c-5.585,1.013-11.152,2.396-16.47,4.729l0.043-0.086c-3.284,1.46-6.49,3.319-9.184,5.922
		c-0.702,0.613-1.275,1.377-1.892,2.089c-0.286,0.377-0.535,0.788-0.803,1.181c-0.13,0.199-0.268,0.394-0.39,0.598l-0.321,0.646
		c-0.2,0.438-0.459,0.848-0.608,1.311l-0.466,1.375c-0.143,0.463-0.2,0.951-0.301,1.425c-0.043,0.239-0.097,0.477-0.13,0.72
		l-0.036,0.738c-0.105,1.973,0.366,3.941,1.17,5.693c0.826,1.752,1.968,3.285,3.201,4.709c2.536,2.78,5.507,5.059,8.624,7.041
		c6.261,3.941,13.044,6.896,19.944,9.395c6.908,2.5,13.978,4.494,21.098,6.152c14.249,3.273,28.726,5.162,43.012,5.584
		c7.142,0.207,14.237,0.002,21.214-0.668c3.486-0.356,6.941-0.83,10.352-1.437c3.404-0.64,6.761-1.416,10.045-2.368
		c4.006-1.129,7.98-2.553,11.802-4.419c3.818-1.864,7.49-4.18,10.74-7.097c3.249-2.909,5.957-6.537,7.826-10.623
		c0.224-0.516,0.416-1.045,0.623-1.568c0.206-0.524,0.422-1.045,0.569-1.596c0.353-1.08,0.551-2.209,0.697-3.342
		c0.227-2.276-0.005-4.617-0.749-6.786c-0.704-2.187-1.882-4.174-3.245-5.976c-1.369-1.807-2.978-3.402-4.68-4.866
		c-3.422-2.919-7.246-5.301-11.197-7.396c-7.937-4.158-16.4-7.233-24.982-9.862c-8.597-2.604-17.354-4.713-26.17-6.51
		c-8.816-1.789-17.695-3.267-26.58-4.49c-17.772-2.445-35.57-3.933-53.093-4.58l0.168-0.125
		c-14.025-0.473-27.952-0.485-41.791,0.259c-6.917,0.38-13.813,0.954-20.666,1.864c-6.844,0.943-13.676,2.145-20.292,4.264
		c-3.29,1.091-6.56,2.385-9.493,4.376c-1.451,0.998-2.818,2.22-3.791,3.784c-0.986,1.553-1.374,3.553-0.972,5.392
		c0.198,0.919,0.565,1.785,1.033,2.58c0.485,0.782,1.062,1.489,1.69,2.137c1.27,1.28,2.73,2.313,4.242,3.22
		c3.038,1.8,6.299,3.107,9.598,4.234c6.618,2.215,13.441,3.675,20.307,4.865c6.871,1.18,13.807,2.036,20.783,2.703
		c14.339,1.485,28.951,2.15,43.665,2.312c14.716,0.148,29.543-0.229,44.357-1.07c14.814-0.854,29.619-2.164,44.271-4.102
		c7.325-0.975,14.61-2.104,21.821-3.488c7.209-1.39,14.354-3.004,21.319-5.141c4.316-1.285,8.763-2.847,13.08-5.068
		c1.074-0.564,2.143-1.16,3.176-1.838c1.038-0.669,2.05-1.402,2.994-2.24c0.941-0.835,1.83-1.766,2.559-2.839
		c0.728-1.069,1.285-2.298,1.502-3.617c0.26-1.31,0.021-2.729-0.569-3.919c-0.579-1.206-1.456-2.211-2.393-3.112
		c-0.941-0.903-1.988-1.677-3.062-2.397c-1.073-0.725-2.192-1.374-3.334-1.979c-4.567-2.425-9.433-4.226-14.312-5.851
		c-9.784-3.203-19.728-5.55-29.243-7.638c-9.522-2.07-18.646-3.807-26.944-5.404c-15.959-2.971-31.904-5.348-47.831-7.344
		c-15.927-1.989-31.84-3.586-47.773-4.815C84.125,9.189,68.17,8.306,52.154,8.012C44.147,7.876,36.121,7.877,28.09,8.234
		c-4.016,0.188-8.034,0.453-12.03,0.977c-1.994,0.273-3.991,0.585-5.939,1.104c-0.971,0.261-1.939,0.563-2.834,1.014
		c-0.449,0.223-0.869,0.5-1.222,0.84c-0.344,0.343-0.562,0.809-0.464,1.281c0.209,1.104,0.697,2.138,1.307,3.08
		c0.62,0.94,1.396,1.766,2.212,2.54c1.653,1.539,3.56,2.781,5.513,3.91c3.467,2.028,7.151,3.648,10.887,5.096
		c3.738,1.449,7.551,2.686,11.386,3.83c7.677,2.271,15.462,4.114,23.277,5.74c15.638,3.224,31.395,5.587,47.124,7.547
		c31.472,3.865,62.853,6.111,93.786,7.494c14.672,0.241,30.102,0.576,45.956,0.479c15.85-0.111,32.137-0.617,48.397-2.345
		l-1.178-0.041c5.859-0.34,12.342-1.302,18.234-2.377c5.897-1.062,11.194-2.251,14.838-2.755l-1.199,0.314
		c3.074-0.513,6.542-1.63,9.642-2.822c3.107-1.182,5.826-2.455,7.632-3.024l0.852-0.571c1.695-0.814,2.564-1.296,3.035-1.532
		c0.474-0.231,0.528-0.248,0.55-0.218c0.02,0.027-0.007,0.086,0.277-0.047c0.276-0.145,0.896-0.427,2.102-1.256
		c0.898-0.641,0.99-0.871,1.356-1.225c0.187-0.172,0.4-0.429,0.8-0.803c0.2-0.188,0.447-0.407,0.716-0.707
		c0.271-0.298,0.628-0.619,0.972-1.074c0.134-0.044,0.456-0.279,0.803-0.747c0.173-0.233,0.376-0.509,0.585-0.829
		c0.174-0.34,0.382-0.715,0.57-1.133c0.721-1.683,0.987-4.193,0.229-6.441c-0.672-2.268-1.953-4.241-2.982-5.666
		c-0.495-0.734-0.978-1.303-1.282-1.756c-0.306-0.458-0.489-0.752-0.465-0.871c0.718,0.779,0.788,0.876,0.637,0.636
		c-0.147-0.24-0.567-0.759-0.885-1.155c-0.31-0.398-0.505-0.684-0.201-0.442c0.3,0.248,1.149,0.966,2.683,2.856
		c-0.193-0.293-0.508-0.694-0.915-1.167c-0.2-0.239-0.419-0.499-0.652-0.778c-0.248-0.262-0.511-0.542-0.785-0.833
		c-1.091-1.175-2.465-2.41-3.781-3.513c-2.65-2.188-5.104-3.78-4.725-3.311c-1.098-0.325-5.275-3.013,0.793,1.817
		c0,0,0.35,0.179,0.698,0.358c0.354,0.176,0.691,0.373,0.691,0.373c1.87,1.848,1.458,1.354,2.039,2.121
		c1.912,1.644,3.268,3.09,4.326,4.357c0.525,0.639,0.989,1.225,1.367,1.807c0.41,0.561,0.729,1.117,1.032,1.654
		c0.329,0.522,0.533,1.081,0.798,1.611c0.13,0.268,0.208,0.553,0.317,0.834c0.096,0.284,0.223,0.562,0.282,0.867
		c0.359,1.186,0.546,2.544,0.338,4.162c0.013-0.064,0.025-0.128,0.032-0.027c-0.066,1.119-0.421,2.344-1.065,3.486
		c-0.626,1.156-1.562,2.195-2.562,3.105c-2.013,1.828-4.336,3.11-6.044,3.961c0,0-0.354,0.146-0.717,0.275
		c-0.36,0.133-0.719,0.267-0.719,0.267c-0.547,0.194-1.461,0.578-2.468,1.059c-1.022,0.449-2.151,0.976-3.146,1.39
		c-1.989,0.844-3.383,1.379-2.025,0.649c-9.582,3.21-20.34,5.186-31.409,6.694c-11.087,1.475-22.545,2.417-33.87,3.028
		c-1.582,0.188-5.918,0.405-9.242,0.546c-3.322,0.152-5.629,0.254-3.146,0.378c-2.848-0.124-8.49-0.106-14.205-0.104
		c-5.715,0-11.503-0.001-14.638-0.003c0.234-0.041,0.501-0.091,1.482-0.074c-6.081-0.303-9.682-0.207-13.19-0.138
		c-3.51,0.069-6.927,0.112-12.615-0.402c-0.898,0.231-6.072,0.046-11.828-0.208c-5.756-0.248-12.092-0.578-15.327-0.455
		c-1.399-0.189-1.862-0.317-1.346-0.38c-20.497-1.105-43.083-3.237-60.328-5.278c-7.394-0.622-16.303-1.803-24.927-3.109
		c-8.628-1.293-16.965-2.725-23.288-3.607c-10.361-2.094-27.102-5.816-41.035-10.574c0,0,0.341,0.105,0.683,0.209
		c0.344,0.098,0.688,0.197,0.688,0.197c-4.343-1.509-8.936-3.312-13.24-5.643c-2.142-1.172-4.208-2.492-5.984-4.043
		c-1.759-1.535-3.207-3.43-3.585-5.403c-0.01-0.056-0.007-0.112,0.009-0.169c0.013-0.022,0.035-0.043,0.046-0.087
		c0.029-0.043,0.082-0.093,0.116-0.143c0.2-0.207,0.503-0.441,0.872-0.624c0.721-0.386,1.565-0.672,2.398-0.919
		c1.688-0.474,3.392-0.791,5.022-1.049c3.267-0.504,6.257-0.786,8.782-1.028c4.926,0.289,12.091,0.015,19.278,0.268
		c5.55-0.104,13.934,0.037,23.043,0.406c9.112,0.359,18.947,0.927,27.417,1.431c2.577,0.443,13.968,0.983,14.805,1.47
		c23.71,1.684,50.179,4.536,76.851,8.791c13.33,2.137,26.717,4.619,39.77,7.663c6.522,1.524,12.962,3.192,19.233,5.096
		c6.26,1.92,11.636,3.964,17.316,6.663l-0.675-0.275c2.998,1.257,6.229,2.69,9.055,4.715c1.404,1.01,2.705,2.193,3.557,3.627
		c0.405,0.721,0.679,1.503,0.741,2.308c0.05,0.808-0.026,1.664-0.279,2.446c-0.107,0.304-0.212,0.416-0.179,0.311
		c0.031-0.106,0.14-0.453,0.307-1.111c-0.479,2.217-1.996,4.044-3.659,5.511c-1.692,1.475-3.61,2.646-5.584,3.683
		c-3.964,2.065-7.436,3.655-11.812,5.13c0.054-0.086,0.054-0.087,1.454-0.618c-8.176,2.939-17.328,4.553-27.349,6.68l-0.581-0.003
		c0,0-1.599,0.313-3.199,0.63c-1.602,0.299-3.206,0.597-3.206,0.597c0.138-0.155,0.358-0.38,3.797-0.913
		c-19.608,3.261-39.605,5.091-59.731,6.174c-20.132,1.046-40.428,1.293-60.753,0.525c-10.162-0.396-20.333-1.051-30.47-2.13
		c-10.128-1.104-20.258-2.556-30.148-5.053c-2.469-0.634-4.919-1.341-7.327-2.165c-2.408-0.822-4.777-1.762-7.035-2.914
		c-2.247-1.149-4.426-2.512-6.13-4.321c-0.844-0.903-1.546-1.931-1.96-3.062c-0.394-1.133-0.476-2.368-0.219-3.527
		c0.27-1.159,0.902-2.227,1.7-3.151c0.803-0.931,1.775-1.727,2.809-2.431c1.036-0.707,2.141-1.325,3.28-1.871
		c1.137-0.555,2.306-1.046,3.495-1.489c4.758-1.783,9.744-2.937,14.747-3.872c0,0-0.729,0.171-1.458,0.342
		c-0.727,0.181-1.454,0.359-1.454,0.359s0.963-0.217,2.415-0.52c1.453-0.288,3.393-0.668,5.344-0.987
		c3.899-0.663,7.83-1.146,7.83-1.146c-0.08,0.072-0.823,0.188-1.571,0.312c10.016-1.086,20.275-1.688,30.483-1.957
		c10.207-0.266,20.364-0.185,30.188,0.263c-0.096,0.06-3.074,0.062-0.326,0.251c14.563,0.283,23.296,1.919,30.612,1.87
		c0.67,0.101,1.116,0.312-0.366,0.228c10.084,0.923,20.211,2.152,30.325,3.734c10.112,1.59,20.218,3.524,30.211,5.984
		c9.982,2.478,19.896,5.414,29.389,9.398c4.737,1.999,8.293,4.338,12.625,7.09c4.298,2.757,7.811,5.879,10.675,10.096
		c1.208,1.725,2.203,3.645,2.729,5.725c0.569,2.072,0.615,4.286,0.262,6.445c-0.216,1.074-0.463,2.146-0.882,3.183l-0.595,1.567
		c-0.211,0.518-0.479,1.008-0.715,1.516c-0.449,1.029-1.08,1.957-1.642,2.928c-0.296,0.477-0.646,0.916-0.965,1.375
		c-0.328,0.455-0.644,0.922-1.023,1.338c-2.854,3.471-5.806,6.491-9.712,8.756c-3.897,2.292-7.014,3.988-11.327,5.39
		c-8.651,2.778-17.723,4.144-26.735,4.812c-9.025,0.644-18.03,0.554-26.844,0.042l0.184-0.121
		c-11.399-0.746-22.932-2.397-34.373-5.045c-5.715-1.337-11.42-2.881-17.039-4.782c-2.816-0.929-5.597-1.983-8.364-3.082
		c-2.757-1.132-5.483-2.352-8.16-3.688c-2.666-1.357-5.278-2.84-7.775-4.514c-2.491-1.676-4.881-3.546-6.95-5.756
		c-0.255-0.277-0.522-0.547-0.766-0.835l-0.709-0.89c-0.498-0.572-0.864-1.244-1.297-1.867c-0.196-0.322-0.356-0.67-0.537-1.004
		c-0.182-0.334-0.355-0.671-0.476-1.033l-0.403-1.068l-0.266-1.107c-0.113-0.365-0.115-0.752-0.159-1.127
		c-0.033-0.379-0.092-0.758-0.047-1.138c0.023-0.378,0.034-0.761,0.066-1.138l0.224-1.121l0.111-0.562
		c0.042-0.185,0.119-0.36,0.177-0.54l0.374-1.078c0.126-0.358,0.331-0.682,0.492-1.024c0.184-0.331,0.312-0.694,0.541-0.997
		c1.608-2.57,3.915-4.602,6.42-6.222c2.515-1.623,5.244-2.868,8.033-3.91c5.597-2.056,11.445-3.265,17.296-4.137
		c9.751-1.319,18.013-1.546,26.26-1.478c4.127,0.037,8.254,0.228,12.579,0.514c4.326,0.291,8.849,0.715,13.756,1.349l0.473,0.228
		c16.528,1.864,33.782,5.766,50.275,12.347c8.216,3.323,16.284,7.312,23.503,12.565c3.597,2.631,6.966,5.599,9.833,9.016
		c2.872,3.402,4.522,7.52,5.757,11.826c0,0,0.211,1.428,0.119,1.214c-0.088-0.215,0.22,0.638,0.103,0.353
		c-0.232-0.567,0.172,0.789,0.172,0.789c0.235,0.644-2.033-7.371-1.756-6.451c0.105,0.469,1.468,5.146,1.584,5.662
		c0.055,0.258,0.112,0.521,0.172,0.789c0.029,0.273,0.06,0.551,0.091,0.83c0.058,0.561,0.131,1.133,0.176,1.713
		c0.002,0.584,0.003,1.174,0.005,1.763c0.025,0.589-0.042,1.173-0.1,1.749c-0.069,0.576-0.076,1.15-0.209,1.692
		c-0.105,0.544-0.209,1.073-0.308,1.583c-0.13,0.5-0.284,0.971-0.413,1.419c-0.066,0.224-0.13,0.44-0.19,0.65
		c-0.073,0.204-0.159,0.396-0.232,0.581c-0.146,0.375-0.281,0.713-0.399,1.016c-0.105,0.305-0.226,0.559-0.329,0.764
		c-0.099,0.209-0.168,0.375-0.21,0.494c-0.083,0.238-0.046,0.288,0.148,0.092c0,0-0.203,0.34-0.506,0.852
		c-0.336,0.488-0.819,1.113-1.285,1.746c-0.533,0.574-1.051,1.16-1.46,1.578c-0.434,0.39-0.723,0.651-0.723,0.651
		c-2.104,2.14-3.988,3.627-6.561,4.902c-2.578,1.274-5.263,2.21-7.979,2.923c-2.723,0.689-5.478,1.168-8.259,1.516
		c-2.784,0.314-5.595,0.495-8.448,0.564c-5.707,0.102-11.579-0.191-17.794-0.869c-6.218-0.659-12.782-1.674-19.888-3.096
		l1.889,0.262c-7.562-1.44-16.268-3.78-21.639-5.77c0.854,0.258,0.467,0.105,2.225,0.625c-2.854-0.996-5.738-2.035-8.619-3.18
		c-2.885-1.13-5.778-2.339-8.652-3.66c-5.747-2.627-11.471-5.641-16.759-9.432c-2.631-1.9-5.149-4.012-7.326-6.473
		c-1.041-1.266-2.078-2.557-2.833-4.028c-0.767-1.449-1.413-3.009-1.599-4.662c-0.216-1.641-0.049-3.322,0.467-4.894
		c0.551-1.564,1.354-3.021,2.322-4.34c0.97-1.327,2.16-2.45,3.398-3.489c1.264-1.009,2.617-1.886,4.019-2.655
		c0,0-0.598,0.418-1.195,0.836c-0.571,0.452-1.141,0.902-1.141,0.902c1.24-0.91,2.72-1.751,4.353-2.566
		c1.655-0.767,3.467-1.503,5.42-2.115c3.905-1.227,8.309-2.086,12.871-2.562c4.561-0.503,9.275-0.606,13.841-0.506
		c4.566,0.127,8.986,0.488,12.993,0.959l-0.987,0.006c0,0,0.506,0.051,1.268,0.125c0.76,0.089,1.773,0.207,2.787,0.326
		c1.012,0.141,2.023,0.28,2.781,0.387c0.756,0.118,1.261,0.199,1.261,0.199l0.167,0.285c10.312,1.91,20.188,4.775,29.418,9.072
		c4.604,2.16,9.042,4.696,13.128,7.789C246.062,103.48,249.796,107.182,252.49,111.708z"/>
	<linearGradient id="SVGID_5_" gradientUnits="userSpaceOnUse" x1="224.2852" y1="105.7354" x2="224.8345" y2="105.7354">
		<stop  offset="0" style="stop-color:#379860"/>
		<stop  offset="1" style="stop-color:#00A0C6"/>
	</linearGradient>
	<path fill="url(#SVGID_5_)" d="M224.834,105.824c-0.057-0.023-0.143-0.057-0.209-0.083
		C224.016,105.568,224.312,105.654,224.834,105.824z"/>
	<linearGradient id="SVGID_6_" gradientUnits="userSpaceOnUse" x1="354.9253" y1="28.6147" x2="355.5894" y2="28.6147">
		<stop  offset="0" style="stop-color:#379860"/>
		<stop  offset="1" style="stop-color:#00A0C6"/>
	</linearGradient>
	<path fill="url(#SVGID_6_)" d="M354.925,29.733c0.182-0.401,0.291-0.788,0.431-1.147c0.075-0.376,0.172-0.729,0.233-1.09
		c-0.017,0.088-0.126,0.471-0.215,0.93c-0.031,0.232-0.151,0.463-0.217,0.693C355.07,29.344,355.025,29.57,354.925,29.733z"/>
</g>
</svg>
